{
.appVersion = "1271";
DisplayStrings = (
"/.notdef \015  -/hyphentwo/u110D2/u110F5/u110D3/u110D0/u110E6/u110DB/u110D4 \012/u110D5/u110D1/u110D6/u110D7/u110E1/u110E0/u110E7/u110D9/u110DC/u110D8/u110DD/u110F1/u110F2 \012/u110DE/u110E4/u110DF/u110DA/u110DB/u110E2/u110E3/u110E5/u110F0/u110E8/u110F3/u110F4/u110F6/u110F7/u110F8/u110F9"
);
copyright = "Copyright 2019 Google LLC. All Rights Reserved.";
customParameters = (
{
name = glyphOrder;
value = (
.notdef,
NULL,
CR,
space,
uni00A0,
hyphen,
hyphentwo,
u110D0,
u110D1,
u110D2,
u110D3,
u110D4,
u110D5,
u110D6,
u110D7,
u110D8,
u110D9,
u110DA,
u110DB,
u110DC,
u110DD,
u110DE,
u110DF,
u110E0,
u110E1,
u110E2,
u110E3,
u110E4,
u110E5,
u110E6,
u110E7,
u110E8,
u110F0,
u110F1,
u110F2,
u110F3,
u110F4,
u110F5,
u110F6,
u110F7,
u110F8,
u110F9
);
},
{
name = description;
value = "Designed by Monotype design team. David Williams.";
},
{
name = license;
value = "This Font Software is licensed under the SIL Open Font License, Version 1.1. This Font Software is distributed on an \"AS IS\" BASIS, WITHOUT WARRANTIES OR CONDITIONS OF ANY KIND, either express or implied. See the SIL Open Font License for the specific language, permissions and limitations governing your use of this Font Software.";
},
{
name = licenseURL;
value = "http://scripts.sil.org/OFL";
},
{
name = vendorID;
value = GOOG;
},
{
name = unicodeRanges;
value = (
0,
1,
31,
57
);
},
{
name = trademark;
value = "Noto is a trademark of Google LLC.";
},
{
name = "Has WWS Names";
value = 1;
},
{
name = versionString;
value = "Version 2.100";
},
{
name = fsType;
value = (
);
},
{
name = codePageRanges;
value = (
1252
);
},
{
name = Axes;
value = (
{
Name = Weight;
Tag = wght;
}
);
},
{
name = "Enforce Compatibility Check";
value = 1;
}
);
date = "2019-11-26 14:41:45 +0000";
designer = "Monotype Design Team. David Williams.";
designerURL = "http://www.monotype.com/studio";
disablesAutomaticAlignment = 1;
disablesNiceNames = 1;
familyName = "Noto Sans Sora Sompeng";

glyphs = (
{
glyphname = .notdef;
lastChange = "2019-09-29 18:32:38 +0000";
layers = (
{
layerId = UUID0;
paths = (
{
closed = 1;
nodes = (
"506 0 LINE",
"506 714 LINE",
"95 714 LINE",
"95 0 LINE"
);
},
{
closed = 1;
nodes = (
"146 663 LINE",
"455 663 LINE",
"455 51 LINE",
"146 51 LINE"
);
}
);
width = 600;
},
{
layerId = "5FD33E09-9304-4171-B46D-1DFFD4F4F5B5";
paths = (
{
closed = 1;
nodes = (
"506 0 LINE",
"506 714 LINE",
"95 714 LINE",
"95 0 LINE"
);
},
{
closed = 1;
nodes = (
"146 663 LINE",
"455 663 LINE",
"455 51 LINE",
"146 51 LINE"
);
}
);
width = 600;
}
);
},
{
glyphname = hyphen;
lastChange = "2019-11-14 16:02:51 +0000";
layers = (
{
layerId = UUID0;
paths = (
{
closed = 1;
nodes = (
"282 229 LINE",
"282 307 LINE",
"40 307 LINE",
"40 229 LINE"
);
}
);
width = 322;
},
{
layerId = "5FD33E09-9304-4171-B46D-1DFFD4F4F5B5";
paths = (
{
closed = 1;
nodes = (
"307 217 LINE",
"307 334 LINE",
"35 334 LINE",
"35 217 LINE"
);
}
);
width = 342;
}
);
leftKerningGroup = hyphen;
rightKerningGroup = hyphen;
unicode = 002D;
},
{
glyphname = u110D0;
lastChange = "2019-11-25 08:22:25 +0000";
layers = (
{
layerId = UUID0;
paths = (
{
closed = 1;
nodes = (
"235 0 LINE",
"235 584 LINE SMOOTH",
"235 672 OFFCURVE",
"292 752 OFFCURVE",
"367 752 CURVE SMOOTH",
"421 752 OFFCURVE",
"447 721 OFFCURVE",
"453 669 CURVE",
"461 672 LINE",
"449 689 OFFCURVE",
"429 695 OFFCURVE",
"407 695 CURVE SMOOTH",
"343 695 OFFCURVE",
"299 644 OFFCURVE",
"299 575 CURVE SMOOTH",
"299 506 OFFCURVE",
"343 455 OFFCURVE",
"407 455 CURVE SMOOTH",
"479 455 OFFCURVE",
"521 515 OFFCURVE",
"521 597 CURVE SMOOTH",
"521 728 OFFCURVE",
"467 814 OFFCURVE",
"365 814 CURVE SMOOTH",
"312 814 OFFCURVE",
"267 784 OFFCURVE",
"233 735 CURVE",
"232 736 LINE",
"234 742 OFFCURVE",
"235 754 OFFCURVE",
"235 765 CURVE SMOOTH",
"235 800 LINE",
"165 800 LINE",
"0 348 LINE",
"67 348 LINE",
"138 546 LINE SMOOTH",
"155 593 OFFCURVE",
"164 627 OFFCURVE",
"172 658 CURVE",
"175 657 LINE",
"170 630 OFFCURVE",
"165 591 OFFCURVE",
"165 532 CURVE SMOOTH",
"165 0 LINE"
);
},
{
closed = 1;
nodes = (
"377 513 OFFCURVE",
"357 539 OFFCURVE",
"357 575 CURVE SMOOTH",
"357 611 OFFCURVE",
"377 637 OFFCURVE",
"407 637 CURVE SMOOTH",
"436 637 OFFCURVE",
"456 611 OFFCURVE",
"456 575 CURVE SMOOTH",
"456 539 OFFCURVE",
"436 513 OFFCURVE",
"407 513 CURVE SMOOTH"
);
}
);
width = 541;
},
{
layerId = "5FD33E09-9304-4171-B46D-1DFFD4F4F5B5";
paths = (
{
closed = 1;
nodes = (
"301 0 LINE",
"301 433 LINE SMOOTH",
"301 636 OFFCURVE",
"409 691 OFFCURVE",
"464 691 CURVE SMOOTH",
"494 691 OFFCURVE",
"518 675 OFFCURVE",
"527 647 CURVE",
"540 654 LINE",
"534 662 OFFCURVE",
"527 670 OFFCURVE",
"517 670 CURVE SMOOTH",
"467 670 OFFCURVE",
"420 627 OFFCURVE",
"420 570 CURVE SMOOTH",
"420 493 OFFCURVE",
"478 452 OFFCURVE",
"537 452 CURVE SMOOTH",
"591 452 OFFCURVE",
"662 486 OFFCURVE",
"662 593 CURVE SMOOTH",
"662 731 OFFCURVE",
"574 815 OFFCURVE",
"467 815 CURVE SMOOTH",
"391 815 OFFCURVE",
"332 783 OFFCURVE",
"293 723 CURVE",
"291 724 LINE",
"293 730 OFFCURVE",
"297 743 OFFCURVE",
"297 764 CURVE SMOOTH",
"297 800 LINE",
"162 800 LINE",
"0 328 LINE",
"122 328 LINE",
"142 396 LINE SMOOTH",
"156 442 OFFCURVE",
"173 501 OFFCURVE",
"196 584 CURVE",
"203 581 LINE",
"179 499 OFFCURVE",
"169 410 OFFCURVE",
"169 352 CURVE SMOOTH",
"169 0 LINE"
);
},
{
closed = 1;
nodes = (
"521 538 OFFCURVE",
"505 553 OFFCURVE",
"505 580 CURVE SMOOTH",
"505 608 OFFCURVE",
"521 625 OFFCURVE",
"541 625 CURVE SMOOTH",
"560 625 OFFCURVE",
"576 608 OFFCURVE",
"576 581 CURVE SMOOTH",
"576 556 OFFCURVE",
"560 538 OFFCURVE",
"541 538 CURVE SMOOTH"
);
}
);
width = 677;
}
);
unicode = 110D0;
},
{
glyphname = u110D1;
lastChange = "2019-11-26 14:31:56 +0000";
layers = (
{
layerId = UUID0;
paths = (
{
closed = 1;
nodes = (
"370 -14 OFFCURVE",
"449 105 OFFCURVE",
"449 249 CURVE SMOOTH",
"449 361 OFFCURVE",
"392 449 OFFCURVE",
"315 486 CURVE",
"361 521 OFFCURVE",
"384 576 OFFCURVE",
"384 644 CURVE SMOOTH",
"384 747 OFFCURVE",
"311 814 OFFCURVE",
"227 814 CURVE SMOOTH",
"169 814 OFFCURVE",
"133 769 OFFCURVE",
"133 720 CURVE SMOOTH",
"133 668 OFFCURVE",
"167 626 OFFCURVE",
"224 626 CURVE SMOOTH",
"270 626 OFFCURVE",
"307 664 OFFCURVE",
"310 705 CURVE",
"307 702 LINE",
"313 690 OFFCURVE",
"318 669 OFFCURVE",
"318 638 CURVE SMOOTH",
"318 554 OFFCURVE",
"276 519 OFFCURVE",
"238 504 CURVE",
"238 449 LINE",
"313 438 OFFCURVE",
"375 374 OFFCURVE",
"375 250 CURVE SMOOTH",
"375 110 OFFCURVE",
"313 52 OFFCURVE",
"241 52 CURVE SMOOTH",
"179 52 OFFCURVE",
"146 86 OFFCURVE",
"122 136 CURVE",
"118 132 LINE",
"139 117 OFFCURVE",
"154 112 OFFCURVE",
"174 112 CURVE SMOOTH",
"249 112 OFFCURVE",
"300 175 OFFCURVE",
"300 262 CURVE SMOOTH",
"300 349 OFFCURVE",
"254 416 OFFCURVE",
"174 416 CURVE SMOOTH",
"102 416 OFFCURVE",
"40 356 OFFCURVE",
"40 245 CURVE SMOOTH",
"40 77 OFFCURVE",
"119 -14 OFFCURVE",
"241 -14 CURVE SMOOTH"
);
},
{
closed = 1;
nodes = (
"136 174 OFFCURVE",
"110 212 OFFCURVE",
"110 265 CURVE SMOOTH",
"110 317 OFFCURVE",
"136 354 OFFCURVE",
"175 354 CURVE SMOOTH",
"212 354 OFFCURVE",
"232 317 OFFCURVE",
"232 265 CURVE SMOOTH",
"232 212 OFFCURVE",
"212 174 OFFCURVE",
"175 174 CURVE SMOOTH"
);
},
{
closed = 1;
nodes = (
"200 678 OFFCURVE",
"186 695 OFFCURVE",
"186 720 CURVE SMOOTH",
"186 745 OFFCURVE",
"200 762 OFFCURVE",
"223 762 CURVE SMOOTH",
"248 762 OFFCURVE",
"262 745 OFFCURVE",
"262 720 CURVE SMOOTH",
"262 695 OFFCURVE",
"247 678 OFFCURVE",
"223 678 CURVE SMOOTH"
);
}
);
width = 489;
},
{
layerId = "5FD33E09-9304-4171-B46D-1DFFD4F4F5B5";
paths = (
{
closed = 1;
nodes = (
"403 -15 OFFCURVE",
"508 87 OFFCURVE",
"508 271 CURVE SMOOTH",
"508 391 OFFCURVE",
"444 489 OFFCURVE",
"377 522 CURVE",
"413 552 OFFCURVE",
"430 596 OFFCURVE",
"430 644 CURVE SMOOTH",
"430 751 OFFCURVE",
"339 814 OFFCURVE",
"251 814 CURVE SMOOTH",
"184 814 OFFCURVE",
"123 767 OFFCURVE",
"123 693 CURVE SMOOTH",
"123 625 OFFCURVE",
"175 583 OFFCURVE",
"229 583 CURVE SMOOTH",
"288 583 OFFCURVE",
"335 633 OFFCURVE",
"321 697 CURVE",
"312 689 LINE",
"328 683 OFFCURVE",
"332 662 OFFCURVE",
"332 646 CURVE SMOOTH",
"332 600 OFFCURVE",
"293 562 OFFCURVE",
"253 533 CURVE",
"253 447 LINE",
"341 426 OFFCURVE",
"376 345 OFFCURVE",
"376 270 CURVE SMOOTH",
"376 157 OFFCURVE",
"312 110 OFFCURVE",
"251 110 CURVE SMOOTH",
"200 110 OFFCURVE",
"161 129 OFFCURVE",
"139 173 CURVE",
"132 161 LINE",
"148 145 OFFCURVE",
"162 138 OFFCURVE",
"182 138 CURVE SMOOTH",
"246 138 OFFCURVE",
"303 190 OFFCURVE",
"303 273 CURVE SMOOTH",
"303 363 OFFCURVE",
"249 416 OFFCURVE",
"175 416 CURVE SMOOTH",
"109 416 OFFCURVE",
"35 366 OFFCURVE",
"35 232 CURVE SMOOTH",
"35 91 OFFCURVE",
"113 -15 OFFCURVE",
"258 -15 CURVE SMOOTH"
);
},
{
closed = 1;
nodes = (
"151 218 OFFCURVE",
"137 236 OFFCURVE",
"137 270 CURVE SMOOTH",
"137 302 OFFCURVE",
"151 320 OFFCURVE",
"172 320 CURVE SMOOTH",
"193 320 OFFCURVE",
"208 302 OFFCURVE",
"208 270 CURVE SMOOTH",
"208 236 OFFCURVE",
"193 218 OFFCURVE",
"172 218 CURVE SMOOTH"
);
},
{
closed = 1;
nodes = (
"216 662 OFFCURVE",
"204 677 OFFCURVE",
"204 697 CURVE SMOOTH",
"204 719 OFFCURVE",
"217 734 OFFCURVE",
"238 734 CURVE SMOOTH",
"258 734 OFFCURVE",
"270 719 OFFCURVE",
"270 697 CURVE SMOOTH",
"270 676 OFFCURVE",
"257 662 OFFCURVE",
"237 662 CURVE SMOOTH"
);
}
);
width = 543;
},
{
associatedMasterId = "5FD33E09-9304-4171-B46D-1DFFD4F4F5B5";
layerId = "8BAF70D4-6B4E-417F-AB2B-F43487D4650C";
name = "Nov 21 19, 09:01";
paths = (
{
closed = 1;
nodes = (
"411 -15 OFFCURVE",
"516 87 OFFCURVE",
"516 271 CURVE SMOOTH",
"516 390 OFFCURVE",
"452 486 OFFCURVE",
"385 519 CURVE",
"421 550 OFFCURVE",
"438 595 OFFCURVE",
"438 644 CURVE SMOOTH",
"438 748 OFFCURVE",
"361 814 OFFCURVE",
"259 814 CURVE SMOOTH",
"187 814 OFFCURVE",
"132 771 OFFCURVE",
"132 703 CURVE SMOOTH",
"132 636 OFFCURVE",
"184 601 OFFCURVE",
"236 601 CURVE SMOOTH",
"289 601 OFFCURVE",
"331 636 OFFCURVE",
"330 680 CURVE",
"317 679 LINE",
"326 663 OFFCURVE",
"330 649 OFFCURVE",
"330 631 CURVE SMOOTH",
"330 590 OFFCURVE",
"296 556 OFFCURVE",
"261 530 CURVE",
"261 444 LINE",
"347 431 OFFCURVE",
"384 343 OFFCURVE",
"384 270 CURVE SMOOTH",
"384 157 OFFCURVE",
"320 110 OFFCURVE",
"259 110 CURVE SMOOTH",
"208 110 OFFCURVE",
"169 136 OFFCURVE",
"147 180 CURVE",
"140 168 LINE",
"156 152 OFFCURVE",
"170 145 OFFCURVE",
"190 145 CURVE SMOOTH",
"251 145 OFFCURVE",
"306 195 OFFCURVE",
"306 275 CURVE SMOOTH",
"306 363 OFFCURVE",
"252 416 OFFCURVE",
"179 416 CURVE SMOOTH",
"116 416 OFFCURVE",
"46 368 OFFCURVE",
"46 239 CURVE SMOOTH",
"46 94 OFFCURVE",
"123 -15 OFFCURVE",
"266 -15 CURVE SMOOTH"
);
},
{
closed = 1;
nodes = (
"156 216 OFFCURVE",
"140 239 OFFCURVE",
"140 278 CURVE SMOOTH",
"140 319 OFFCURVE",
"158 337 OFFCURVE",
"180 337 CURVE SMOOTH",
"204 337 OFFCURVE",
"221 319 OFFCURVE",
"221 278 CURVE SMOOTH",
"221 239 OFFCURVE",
"206 216 OFFCURVE",
"180 216 CURVE SMOOTH"
);
},
{
closed = 1;
nodes = (
"220 671 OFFCURVE",
"208 686 OFFCURVE",
"208 706 CURVE SMOOTH",
"208 728 OFFCURVE",
"221 743 OFFCURVE",
"242 743 CURVE SMOOTH",
"262 743 OFFCURVE",
"274 728 OFFCURVE",
"274 706 CURVE SMOOTH",
"274 685 OFFCURVE",
"261 671 OFFCURVE",
"241 671 CURVE SMOOTH"
);
},
{
closed = 0;
nodes = (
"270 68 LINE SMOOTH",
"221 68 OFFCURVE",
"161 95 OFFCURVE",
"152 187 CURVE",
"128 169 LINE",
"147 152 OFFCURVE",
"167 144 OFFCURVE",
"194 144 CURVE SMOOTH",
"258 144 OFFCURVE",
"312 198 OFFCURVE",
"312 281 CURVE SMOOTH",
"312 365 OFFCURVE",
"255 424 OFFCURVE",
"185 424 CURVE SMOOTH",
"100 424 OFFCURVE",
"26 343 OFFCURVE",
"26 207 CURVE SMOOTH",
"26 5 OFFCURVE",
"164 -67 OFFCURVE",
"271 -67 CURVE SMOOTH"
);
},
{
closed = 1;
nodes = (
"159 225 OFFCURVE",
"145 243 OFFCURVE",
"145 277 CURVE SMOOTH",
"145 309 OFFCURVE",
"159 327 OFFCURVE",
"180 327 CURVE SMOOTH",
"201 327 OFFCURVE",
"216 309 OFFCURVE",
"216 277 CURVE SMOOTH",
"216 243 OFFCURVE",
"201 225 OFFCURVE",
"180 225 CURVE SMOOTH"
);
}
);
width = 543;
}
);
unicode = 110D1;
},
{
glyphname = u110D2;
lastChange = "2019-11-27 09:47:27 +0000";
layers = (
{
layerId = UUID0;
paths = (
{
closed = 1;
nodes = (
"330 0 LINE",
"330 800 LINE",
"281 800 LINE",
"247 793 OFFCURVE",
"213 788 OFFCURVE",
"177 788 CURVE SMOOTH",
"148 788 OFFCURVE",
"118 791 OFFCURVE",
"87 800 CURVE",
"40 800 LINE",
"40 630 LINE",
"110 630 LINE",
"110 735 LINE",
"133 731 OFFCURVE",
"158 728 OFFCURVE",
"182 728 CURVE SMOOTH",
"207 728 OFFCURVE",
"236 730 OFFCURVE",
"260 734 CURVE",
"260 433 LINE",
"43 433 LINE",
"43 373 LINE",
"149 286 OFFCURVE",
"224 149 OFFCURVE",
"260 4 CURVE",
"260 0 LINE"
);
},
{
closed = 1;
nodes = (
"263 164 OFFCURVE",
"254 192 OFFCURVE",
"244 214 CURVE SMOOTH",
"228 250 OFFCURVE",
"182 323 OFFCURVE",
"133 373 CURVE",
"260 373 LINE",
"260 256 LINE SMOOTH",
"260 217 OFFCURVE",
"266 164 OFFCURVE",
"269 152 CURVE",
"266 151 LINE"
);
}
);
width = 410;
},
{
layerId = "5FD33E09-9304-4171-B46D-1DFFD4F4F5B5";
paths = (
{
closed = 1;
nodes = (
"423 0 LINE",
"423 800 LINE",
"304 800 LINE",
"278 783 OFFCURVE",
"249 778 OFFCURVE",
"224 778 CURVE SMOOTH",
"199 778 OFFCURVE",
"169 783 OFFCURVE",
"139 800 CURVE",
"35 800 LINE",
"35 600 LINE",
"150 600 LINE",
"150 683 LINE",
"173 663 OFFCURVE",
"199 658 OFFCURVE",
"222 658 CURVE SMOOTH",
"245 658 OFFCURVE",
"270 663 OFFCURVE",
"291 682 CURVE",
"291 496 LINE",
"41 496 LINE",
"41 371 LINE",
"158 278 OFFCURVE",
"239 151 OFFCURVE",
"267 6 CURVE",
"267 0 LINE"
);
},
{
closed = 1;
nodes = (
"286 244 OFFCURVE",
"274 270 OFFCURVE",
"263 287 CURVE SMOOTH",
"247 314 OFFCURVE",
"230 350 OFFCURVE",
"197 381 CURVE",
"291 381 LINE",
"291 318 LINE SMOOTH",
"291 283 OFFCURVE",
"294 251 OFFCURVE",
"297 222 CURVE",
"293 221 LINE"
);
}
);
width = 493;
}
);
unicode = 110D2;
},
{
glyphname = u110D3;
lastChange = "2019-11-27 09:55:02 +0000";
layers = (
{
layerId = UUID0;
paths = (
{
closed = 1;
nodes = (
"490 0 LINE",
"490 60 LINE",
"306 60 LINE",
"306 527 LINE",
"237 527 LINE",
"234 499 OFFCURVE",
"214 472 OFFCURVE",
"187 472 CURVE SMOOTH",
"143 472 OFFCURVE",
"114 524 OFFCURVE",
"114 613 CURVE SMOOTH",
"114 693 OFFCURVE",
"140 752 OFFCURVE",
"195 752 CURVE SMOOTH",
"245 752 OFFCURVE",
"260 721 OFFCURVE",
"262 673 CURVE",
"331 673 LINE",
"329 771 OFFCURVE",
"283 814 OFFCURVE",
"198 814 CURVE SMOOTH",
"105 814 OFFCURVE",
"40 745 OFFCURVE",
"40 606 CURVE SMOOTH",
"40 484 OFFCURVE",
"97 410 OFFCURVE",
"176 410 CURVE SMOOTH",
"204 410 OFFCURVE",
"234 418 OFFCURVE",
"252 448 CURVE",
"236 450 LINE",
"236 0 LINE"
);
}
);
width = 500;
},
{
layerId = "5FD33E09-9304-4171-B46D-1DFFD4F4F5B5";
paths = (
{
closed = 1;
nodes = (
"581 0 LINE",
"581 125 LINE",
"431 125 LINE",
"431 461 LINE",
"314 461 LINE",
"305 428 OFFCURVE",
"279 414 OFFCURVE",
"256 414 CURVE SMOOTH",
"196 414 OFFCURVE",
"170 480 OFFCURVE",
"170 555 CURVE SMOOTH",
"170 658 OFFCURVE",
"213 690 OFFCURVE",
"253 690 CURVE SMOOTH",
"302 690 OFFCURVE",
"324 641 OFFCURVE",
"324 576 CURVE",
"459 576 LINE",
"459 718 OFFCURVE",
"392 815 OFFCURVE",
"259 815 CURVE SMOOTH",
"120 815 OFFCURVE",
"35 700 OFFCURVE",
"35 542 CURVE SMOOTH",
"35 415 OFFCURVE",
"99 294 OFFCURVE",
"223 294 CURVE SMOOTH",
"274 294 OFFCURVE",
"312 321 OFFCURVE",
"330 371 CURVE",
"299 385 LINE",
"299 0 LINE"
);
}
);
width = 586;
}
);
unicode = 110D3;
},
{
glyphname = u110D4;
lastChange = "2019-11-26 13:37:06 +0000";
layers = (
{
layerId = UUID0;
paths = (
{
closed = 1;
nodes = (
"526 -14 OFFCURVE",
"556 80 OFFCURVE",
"556 177 CURVE SMOOTH",
"556 336 OFFCURVE",
"482 452 OFFCURVE",
"370 452 CURVE SMOOTH",
"330 452 OFFCURVE",
"284 436 OFFCURVE",
"247 392 CURVE",
"247 654 LINE SMOOTH",
"247 729 OFFCURVE",
"224 814 OFFCURVE",
"128 814 CURVE SMOOTH",
"64 814 OFFCURVE",
"20 763 OFFCURVE",
"20 694 CURVE SMOOTH",
"20 625 OFFCURVE",
"64 574 OFFCURVE",
"124 574 CURVE SMOOTH",
"163 574 OFFCURVE",
"183 590 OFFCURVE",
"192 605 CURVE",
"185 614 LINE",
"182 599 OFFCURVE",
"177 534 OFFCURVE",
"177 480 CURVE SMOOTH",
"177 0 LINE",
"247 0 LINE",
"247 299 LINE",
"271 350 OFFCURVE",
"309 386 OFFCURVE",
"362 386 CURVE SMOOTH",
"420 386 OFFCURVE",
"463 346 OFFCURVE",
"481 254 CURVE",
"487 262 LINE",
"470 284 OFFCURVE",
"448 290 OFFCURVE",
"424 290 CURVE SMOOTH",
"352 290 OFFCURVE",
"296 223 OFFCURVE",
"296 136 CURVE SMOOTH",
"296 49 OFFCURVE",
"352 -14 OFFCURVE",
"424 -14 CURVE SMOOTH"
);
},
{
closed = 1;
nodes = (
"386 48 OFFCURVE",
"360 86 OFFCURVE",
"360 139 CURVE SMOOTH",
"360 191 OFFCURVE",
"386 228 OFFCURVE",
"425 228 CURVE SMOOTH",
"462 228 OFFCURVE",
"482 191 OFFCURVE",
"482 139 CURVE SMOOTH",
"482 86 OFFCURVE",
"462 48 OFFCURVE",
"425 48 CURVE SMOOTH"
);
},
{
closed = 1;
nodes = (
"98 632 OFFCURVE",
"78 658 OFFCURVE",
"78 694 CURVE SMOOTH",
"78 730 OFFCURVE",
"98 756 OFFCURVE",
"128 756 CURVE SMOOTH",
"157 756 OFFCURVE",
"177 730 OFFCURVE",
"177 694 CURVE SMOOTH",
"177 658 OFFCURVE",
"157 632 OFFCURVE",
"128 632 CURVE SMOOTH"
);
}
);
width = 596;
},
{
layerId = "5FD33E09-9304-4171-B46D-1DFFD4F4F5B5";
paths = (
{
closed = 1;
nodes = (
"551 -15 OFFCURVE",
"619 45 OFFCURVE",
"619 178 CURVE SMOOTH",
"620 378 OFFCURVE",
"508 451 OFFCURVE",
"426 452 CURVE SMOOTH",
"360 453 OFFCURVE",
"313 426 OFFCURVE",
"288 397 CURVE",
"288 631 LINE SMOOTH",
"288 750 OFFCURVE",
"235 814 OFFCURVE",
"146 814 CURVE SMOOTH",
"67 814 OFFCURVE",
"15 743 OFFCURVE",
"15 671 CURVE SMOOTH",
"15 582 OFFCURVE",
"80 541 OFFCURVE",
"134 541 CURVE SMOOTH",
"155 541 OFFCURVE",
"164 545 OFFCURVE",
"174 552 CURVE",
"161 561 LINE",
"159 530 OFFCURVE",
"156 485 OFFCURVE",
"156 444 CURVE SMOOTH",
"156 1 LINE",
"288 0 LINE",
"288 247 LINE",
"314 289 OFFCURVE",
"359 317 OFFCURVE",
"404 317 CURVE SMOOTH",
"441 317 OFFCURVE",
"481 295 OFFCURVE",
"488 248 CURVE",
"501 253 LINE",
"496 261 OFFCURVE",
"489 272 OFFCURVE",
"478 272 CURVE SMOOTH",
"400 272 OFFCURVE",
"342 220 OFFCURVE",
"343 131 CURVE SMOOTH",
"345 30 OFFCURVE",
"411 -15 OFFCURVE",
"479 -15 CURVE SMOOTH"
);
},
{
closed = 1;
nodes = (
"456 81 OFFCURVE",
"439 101 OFFCURVE",
"439 138 CURVE SMOOTH",
"439 177 OFFCURVE",
"456 197 OFFCURVE",
"480 197 CURVE SMOOTH",
"504 197 OFFCURVE",
"520 177 OFFCURVE",
"520 138 CURVE SMOOTH",
"520 101 OFFCURVE",
"504 81 OFFCURVE",
"480 81 CURVE SMOOTH"
);
},
{
closed = 1;
nodes = (
"126 628 OFFCURVE",
"112 646 OFFCURVE",
"112 671 CURVE SMOOTH",
"112 697 OFFCURVE",
"126 717 OFFCURVE",
"148 717 CURVE SMOOTH",
"169 717 OFFCURVE",
"183 697 OFFCURVE",
"183 673 CURVE SMOOTH",
"183 646 OFFCURVE",
"169 628 OFFCURVE",
"148 628 CURVE SMOOTH"
);
}
);
width = 654;
}
);
unicode = 110D4;
},
{
glyphname = u110D5;
lastChange = "2019-11-21 13:40:59 +0000";
layers = (
{
layerId = UUID0;
paths = (
{
closed = 1;
nodes = (
"372 -14 OFFCURVE",
"463 89 OFFCURVE",
"463 246 CURVE SMOOTH",
"463 375 OFFCURVE",
"413 438 OFFCURVE",
"342 464 CURVE",
"342 800 LINE",
"272 800 LINE",
"98 705 LINE",
"98 635 LINE",
"272 730 LINE",
"272 410 LINE",
"330 410 OFFCURVE",
"389 364 OFFCURVE",
"389 246 CURVE SMOOTH",
"389 109 OFFCURVE",
"310 48 OFFCURVE",
"248 48 CURVE",
"267 55 OFFCURVE",
"300 107 OFFCURVE",
"301 162 CURVE SMOOTH",
"301 248 OFFCURVE",
"254 315 OFFCURVE",
"174 315 CURVE SMOOTH",
"93 315 OFFCURVE",
"40 244 OFFCURVE",
"40 161 CURVE SMOOTH",
"40 54 OFFCURVE",
"121 -14 OFFCURVE",
"246 -14 CURVE SMOOTH"
);
},
{
closed = 1;
nodes = (
"136 73 OFFCURVE",
"110 111 OFFCURVE",
"110 164 CURVE SMOOTH",
"110 216 OFFCURVE",
"136 253 OFFCURVE",
"175 253 CURVE SMOOTH",
"212 253 OFFCURVE",
"232 216 OFFCURVE",
"232 164 CURVE SMOOTH",
"232 111 OFFCURVE",
"212 73 OFFCURVE",
"175 73 CURVE SMOOTH"
);
}
);
width = 503;
},
{
layerId = "5FD33E09-9304-4171-B46D-1DFFD4F4F5B5";
paths = (
{
closed = 1;
nodes = (
"412 -15 OFFCURVE",
"506 101 OFFCURVE",
"506 247 CURVE SMOOTH",
"506 356 OFFCURVE",
"466 422 OFFCURVE",
"402 464 CURVE",
"402 800 LINE",
"270 800 LINE",
"88 688 LINE",
"88 558 LINE",
"270 670 LINE",
"270 399 LINE",
"337 381 OFFCURVE",
"371 327 OFFCURVE",
"371 250 CURVE SMOOTH",
"371 154 OFFCURVE",
"308 109 OFFCURVE",
"287 109 CURVE",
"295 117 OFFCURVE",
"313 143 OFFCURVE",
"313 185 CURVE SMOOTH",
"313 264 OFFCURVE",
"261 328 OFFCURVE",
"176 328 CURVE SMOOTH",
"96 328 OFFCURVE",
"35 259 OFFCURVE",
"35 167 CURVE SMOOTH",
"35 74 OFFCURVE",
"113 -15 OFFCURVE",
"256 -15 CURVE SMOOTH"
);
},
{
closed = 1;
nodes = (
"153 116 OFFCURVE",
"136 136 OFFCURVE",
"136 173 CURVE SMOOTH",
"136 212 OFFCURVE",
"153 232 OFFCURVE",
"177 232 CURVE SMOOTH",
"201 232 OFFCURVE",
"217 212 OFFCURVE",
"217 173 CURVE SMOOTH",
"217 136 OFFCURVE",
"201 116 OFFCURVE",
"177 116 CURVE SMOOTH"
);
}
);
width = 541;
}
);
unicode = 110D5;
},
{
glyphname = u110D6;
lastChange = "2019-11-27 09:48:11 +0000";
layers = (
{
layerId = UUID0;
paths = (
{
closed = 1;
nodes = (
"347 -14 OFFCURVE",
"401 52 OFFCURVE",
"401 138 CURVE SMOOTH",
"401 207 OFFCURVE",
"373 269 OFFCURVE",
"287 357 CURVE",
"318 385 OFFCURVE",
"354 401 OFFCURVE",
"385 406 CURVE",
"385 460 LINE",
"288 483 OFFCURVE",
"231 548 OFFCURVE",
"231 642 CURVE SMOOTH",
"231 670 OFFCURVE",
"235 693 OFFCURVE",
"242 703 CURVE",
"236 706 LINE",
"238 665 OFFCURVE",
"273 626 OFFCURVE",
"323 626 CURVE SMOOTH",
"374 626 OFFCURVE",
"414 668 OFFCURVE",
"414 720 CURVE SMOOTH",
"414 779 OFFCURVE",
"374 814 OFFCURVE",
"313 814 CURVE SMOOTH",
"233 814 OFFCURVE",
"161 741 OFFCURVE",
"161 631 CURVE SMOOTH",
"161 541 OFFCURVE",
"225 451 OFFCURVE",
"317 426 CURVE",
"315 441 LINE",
"285 431 OFFCURVE",
"264 416 OFFCURVE",
"246 400 CURVE",
"57 593 LINE",
"20 532 LINE",
"201 350 LINE",
"160 295 OFFCURVE",
"133 225 OFFCURVE",
"133 153 CURVE SMOOTH",
"133 35 OFFCURVE",
"191 -14 OFFCURVE",
"269 -14 CURVE SMOOTH"
);
},
{
closed = 1;
nodes = (
"300 678 OFFCURVE",
"285 695 OFFCURVE",
"285 720 CURVE SMOOTH",
"285 745 OFFCURVE",
"299 762 OFFCURVE",
"324 762 CURVE SMOOTH",
"347 762 OFFCURVE",
"361 745 OFFCURVE",
"361 720 CURVE SMOOTH",
"361 695 OFFCURVE",
"347 678 OFFCURVE",
"324 678 CURVE SMOOTH"
);
},
{
closed = 1;
nodes = (
"237 52 OFFCURVE",
"207 85 OFFCURVE",
"207 166 CURVE SMOOTH",
"207 222 OFFCURVE",
"221 268 OFFCURVE",
"244 305 CURVE",
"301 244 OFFCURVE",
"327 193 OFFCURVE",
"327 145 CURVE SMOOTH",
"327 85 OFFCURVE",
"304 52 OFFCURVE",
"269 52 CURVE SMOOTH"
);
}
);
width = 454;
},
{
layerId = "5FD33E09-9304-4171-B46D-1DFFD4F4F5B5";
paths = (
{
closed = 1;
nodes = (
"412 -15 OFFCURVE",
"487 47 OFFCURVE",
"487 137 CURVE SMOOTH",
"487 202 OFFCURVE",
"456 253 OFFCURVE",
"377 327 CURVE",
"399 349 OFFCURVE",
"427 370 OFFCURVE",
"460 387 CURVE",
"460 492 LINE",
"382 510 OFFCURVE",
"338 568 OFFCURVE",
"338 589 CURVE SMOOTH",
"338 597 OFFCURVE",
"338 601 OFFCURVE",
"338 604 CURVE",
"319 608 LINE",
"329 595 OFFCURVE",
"344 584 OFFCURVE",
"374 584 CURVE SMOOTH",
"422 584 OFFCURVE",
"479 622 OFFCURVE",
"479 696 CURVE SMOOTH",
"479 754 OFFCURVE",
"443 815 OFFCURVE",
"366 815 CURVE SMOOTH",
"294 815 OFFCURVE",
"208 749 OFFCURVE",
"209 629 CURVE SMOOTH",
"209 562 OFFCURVE",
"244 477 OFFCURVE",
"354 421 CURVE",
"346 442 LINE",
"321 429 OFFCURVE",
"309 412 OFFCURVE",
"290 388 CURVE",
"63 565 LINE",
"15 450 LINE",
"215 303 LINE",
"186 261 OFFCURVE",
"163 200 OFFCURVE",
"163 154 CURVE SMOOTH",
"163 54 OFFCURVE",
"233 -15 OFFCURVE",
"319 -15 CURVE SMOOTH"
);
},
{
closed = 1;
nodes = (
"345 663 OFFCURVE",
"332 677 OFFCURVE",
"332 698 CURVE SMOOTH",
"332 720 OFFCURVE",
"344 735 OFFCURVE",
"364 735 CURVE SMOOTH",
"385 735 OFFCURVE",
"398 720 OFFCURVE",
"398 698 CURVE SMOOTH",
"398 677 OFFCURVE",
"386 663 OFFCURVE",
"365 663 CURVE SMOOTH"
);
},
{
closed = 1;
nodes = (
"301 105 OFFCURVE",
"287 129 OFFCURVE",
"287 167 CURVE SMOOTH",
"287 189 OFFCURVE",
"293 214 OFFCURVE",
"305 238 CURVE",
"345 205 OFFCURVE",
"363 178 OFFCURVE",
"363 151 CURVE SMOOTH",
"363 125 OFFCURVE",
"348 105 OFFCURVE",
"326 105 CURVE SMOOTH"
);
}
);
width = 532;
},
{
associatedMasterId = "5FD33E09-9304-4171-B46D-1DFFD4F4F5B5";
layerId = "1646F7F7-0BC2-4336-A6BF-36B006B403A9";
name = "Nov 14 19, 14:13";
paths = (
{
closed = 1;
nodes = (
"285 643 OFFCURVE",
"272 657 OFFCURVE",
"272 678 CURVE SMOOTH",
"272 700 OFFCURVE",
"284 715 OFFCURVE",
"304 715 CURVE SMOOTH",
"325 715 OFFCURVE",
"338 700 OFFCURVE",
"338 678 CURVE SMOOTH",
"338 657 OFFCURVE",
"326 643 OFFCURVE",
"305 643 CURVE SMOOTH"
);
},
{
closed = 1;
nodes = (
"168 373 OFFCURVE",
"75 266 OFFCURVE",
"75 154 CURVE SMOOTH",
"75 54 OFFCURVE",
"142 -15 OFFCURVE",
"241 -15 CURVE SMOOTH",
"349 -15 OFFCURVE",
"419 48 OFFCURVE",
"419 139 CURVE SMOOTH",
"419 211 OFFCURVE",
"374 268 OFFCURVE",
"255 359 CURVE SMOOTH",
"-15 565 LINE",
"-63 450 LINE",
"200 259 LINE SMOOTH",
"259 216 OFFCURVE",
"285 184 OFFCURVE",
"285 151 CURVE SMOOTH",
"285 127 OFFCURVE",
"270 109 OFFCURVE",
"248 109 CURVE SMOOTH",
"223 109 OFFCURVE",
"209 131 OFFCURVE",
"209 167 CURVE SMOOTH",
"209 242 OFFCURVE",
"278 336 OFFCURVE",
"403 387 CURVE",
"403 487 LINE",
"292 496 OFFCURVE",
"201 553 OFFCURVE",
"201 624 CURVE SMOOTH",
"201 639 OFFCURVE",
"203 653 OFFCURVE",
"209 667 CURVE",
"195 671 LINE",
"196 598 OFFCURVE",
"240 550 OFFCURVE",
"309 550 CURVE SMOOTH",
"373 550 OFFCURVE",
"433 596 OFFCURVE",
"433 673 CURVE SMOOTH",
"433 757 OFFCURVE",
"369 814 OFFCURVE",
"287 814 CURVE SMOOTH",
"184 814 OFFCURVE",
"90 732 OFFCURVE",
"90 618 CURVE SMOOTH",
"90 528 OFFCURVE",
"154 456 OFFCURVE",
"251 417 CURVE"
);
}
);
width = 543;
}
);
unicode = 110D6;
},
{
glyphname = u110D7;
lastChange = "2019-11-27 10:00:36 +0000";
layers = (
{
layerId = UUID0;
paths = (
{
closed = 1;
nodes = (
"278 0 LINE",
"278 599 LINE",
"300 639 OFFCURVE",
"327 681 OFFCURVE",
"353 709 CURVE",
"338 711 LINE",
"343 663 OFFCURVE",
"381 626 OFFCURVE",
"429 626 CURVE SMOOTH",
"480 626 OFFCURVE",
"520 668 OFFCURVE",
"520 720 CURVE SMOOTH",
"520 772 OFFCURVE",
"480 814 OFFCURVE",
"425 814 CURVE SMOOTH",
"357 814 OFFCURVE",
"306 748 OFFCURVE",
"274 680 CURVE",
"272 681 LINE",
"276 700 OFFCURVE",
"278 719 OFFCURVE",
"278 748 CURVE SMOOTH",
"278 800 LINE",
"208 800 LINE",
"61 600 LINE",
"138 600 LINE",
"217 725 LINE",
"219 724 LINE",
"211 709 OFFCURVE",
"208 694 OFFCURVE",
"208 658 CURVE SMOOTH",
"208 594 LINE",
"152 502 OFFCURVE",
"97 421 OFFCURVE",
"33 421 CURVE SMOOTH",
"20 421 LINE",
"20 361 LINE",
"33 361 LINE SMOOTH",
"111 361 OFFCURVE",
"186 231 OFFCURVE",
"208 132 CURVE",
"208 0 LINE"
);
},
{
closed = 1;
nodes = (
"198 320 OFFCURVE",
"149 382 OFFCURVE",
"91 399 CURVE",
"86 382 LINE",
"152 414 OFFCURVE",
"187 457 OFFCURVE",
"217 516 CURVE",
"219 515 LINE",
"213 500 OFFCURVE",
"210 478 OFFCURVE",
"210 450 CURVE SMOOTH",
"210 346 LINE SMOOTH",
"210 316 OFFCURVE",
"212 284 OFFCURVE",
"217 265 CURVE",
"215 264 LINE"
);
},
{
closed = 1;
nodes = (
"405 678 OFFCURVE",
"391 695 OFFCURVE",
"391 720 CURVE SMOOTH",
"391 745 OFFCURVE",
"405 762 OFFCURVE",
"429 762 CURVE SMOOTH",
"453 762 OFFCURVE",
"467 745 OFFCURVE",
"467 720 CURVE SMOOTH",
"467 695 OFFCURVE",
"452 678 OFFCURVE",
"429 678 CURVE SMOOTH"
);
}
);
width = 540;
},
{
layerId = "5FD33E09-9304-4171-B46D-1DFFD4F4F5B5";
paths = (
{
closed = 1;
nodes = (
"360 0 LINE",
"360 509 LINE",
"377 538 OFFCURVE",
"413 601 OFFCURVE",
"460 631 CURVE",
"443 634 LINE",
"449 610 OFFCURVE",
"485 583 OFFCURVE",
"533 583 CURVE SMOOTH",
"595 583 OFFCURVE",
"643 626 OFFCURVE",
"643 696 CURVE SMOOTH",
"643 764 OFFCURVE",
"593 814 OFFCURVE",
"529 814 CURVE SMOOTH",
"460 814 OFFCURVE",
"411 772 OFFCURVE",
"353 671 CURVE",
"349 673 LINE",
"358 706 OFFCURVE",
"360 729 OFFCURVE",
"360 771 CURVE SMOOTH",
"360 800 LINE",
"179 800 LINE",
"35 580 LINE",
"165 580 LINE",
"239 708 LINE",
"243 705 LINE",
"236 689 OFFCURVE",
"228 663 OFFCURVE",
"228 633 CURVE SMOOTH",
"228 547 LINE",
"186 503 OFFCURVE",
"130 459 OFFCURVE",
"44 450 CURVE SMOOTH",
"15 447 LINE",
"15 255 LINE",
"32 249 LINE SMOOTH",
"145 209 OFFCURVE",
"196 129 OFFCURVE",
"228 51 CURVE",
"228 0 LINE"
);
},
{
closed = 1;
nodes = (
"206 294 OFFCURVE",
"164 332 OFFCURVE",
"86 351 CURVE",
"86 340 LINE",
"162 354 OFFCURVE",
"206 379 OFFCURVE",
"232 412 CURVE",
"234 410 LINE",
"231 397 OFFCURVE",
"228 381 OFFCURVE",
"228 355 CURVE SMOOTH",
"228 311 LINE SMOOTH",
"228 288 OFFCURVE",
"230 274 OFFCURVE",
"234 244 CURVE",
"231 243 LINE"
);
},
{
closed = 1;
nodes = (
"509 663 OFFCURVE",
"496 677 OFFCURVE",
"496 698 CURVE SMOOTH",
"496 720 OFFCURVE",
"508 735 OFFCURVE",
"528 735 CURVE SMOOTH",
"549 735 OFFCURVE",
"562 720 OFFCURVE",
"562 698 CURVE SMOOTH",
"562 677 OFFCURVE",
"550 663 OFFCURVE",
"529 663 CURVE SMOOTH"
);
}
);
width = 658;
}
);
unicode = 110D7;
},
{
glyphname = u110D8;
lastChange = "2019-11-26 14:29:26 +0000";
layers = (
{
layerId = UUID0;
paths = (
{
closed = 1;
nodes = (
"348 -14 OFFCURVE",
"405 83 OFFCURVE",
"405 249 CURVE SMOOTH",
"405 575 LINE",
"414 574 OFFCURVE",
"423 574 OFFCURVE",
"432 574 CURVE SMOOTH",
"510 574 OFFCURVE",
"558 623 OFFCURVE",
"558 693 CURVE SMOOTH",
"558 765 OFFCURVE",
"510 814 OFFCURVE",
"450 814 CURVE SMOOTH",
"388 814 OFFCURVE",
"335 778 OFFCURVE",
"335 666 CURVE SMOOTH",
"335 651 LINE",
"245 679 OFFCURVE",
"151 731 OFFCURVE",
"113 758 CURVE",
"113 686 LINE",
"144 668 OFFCURVE",
"238 614 OFFCURVE",
"335 588 CURVE",
"335 250 LINE SMOOTH",
"335 110 OFFCURVE",
"302 52 OFFCURVE",
"225 52 CURVE SMOOTH",
"162 52 OFFCURVE",
"114 106 OFFCURVE",
"100 217 CURVE",
"97 210 LINE",
"114 191 OFFCURVE",
"141 172 OFFCURVE",
"180 172 CURVE SMOOTH",
"247 172 OFFCURVE",
"300 235 OFFCURVE",
"300 322 CURVE SMOOTH",
"300 409 OFFCURVE",
"254 476 OFFCURVE",
"174 476 CURVE SMOOTH",
"82 476 OFFCURVE",
"40 383 OFFCURVE",
"40 281 CURVE SMOOTH",
"40 59 OFFCURVE",
"126 -14 OFFCURVE",
"223 -14 CURVE SMOOTH"
);
},
{
closed = 1;
nodes = (
"136 234 OFFCURVE",
"110 272 OFFCURVE",
"110 325 CURVE SMOOTH",
"110 377 OFFCURVE",
"136 414 OFFCURVE",
"175 414 CURVE SMOOTH",
"212 414 OFFCURVE",
"232 377 OFFCURVE",
"232 325 CURVE SMOOTH",
"232 272 OFFCURVE",
"212 234 OFFCURVE",
"175 234 CURVE SMOOTH"
);
},
{
closed = 1;
nodes = (
"424 634 OFFCURVE",
"415 634 OFFCURVE",
"405 636 CURVE",
"405 667 LINE SMOOTH",
"405 740 OFFCURVE",
"426 756 OFFCURVE",
"450 756 CURVE SMOOTH",
"479 756 OFFCURVE",
"499 732 OFFCURVE",
"499 693 CURVE SMOOTH",
"499 656 OFFCURVE",
"479 634 OFFCURVE",
"434 634 CURVE SMOOTH"
);
}
);
width = 578;
},
{
layerId = "5FD33E09-9304-4171-B46D-1DFFD4F4F5B5";
paths = (
{
closed = 1;
nodes = (
"389 -15 OFFCURVE",
"483 65 OFFCURVE",
"483 288 CURVE SMOOTH",
"483 520 LINE",
"486 520 OFFCURVE",
"490 520 OFFCURVE",
"493 520 CURVE SMOOTH",
"616 520 OFFCURVE",
"674 594 OFFCURVE",
"674 675 CURVE SMOOTH",
"674 743 OFFCURVE",
"615 814 OFFCURVE",
"520 814 CURVE SMOOTH",
"457 814 OFFCURVE",
"356 773 OFFCURVE",
"356 666 CURVE SMOOTH",
"356 653 LINE",
"288 671 OFFCURVE",
"208 710 OFFCURVE",
"114 768 CURVE",
"114 636 LINE",
"195 591 OFFCURVE",
"312 558 OFFCURVE",
"351 541 CURVE",
"351 288 LINE SMOOTH",
"351 159 OFFCURVE",
"306 120 OFFCURVE",
"257 120 CURVE SMOOTH",
"215 120 OFFCURVE",
"158 147 OFFCURVE",
"149 239 CURVE",
"132 215 LINE",
"145 204 OFFCURVE",
"168 196 OFFCURVE",
"198 196 CURVE SMOOTH",
"262 196 OFFCURVE",
"316 250 OFFCURVE",
"316 333 CURVE SMOOTH",
"316 417 OFFCURVE",
"259 476 OFFCURVE",
"189 476 CURVE SMOOTH",
"95 476 OFFCURVE",
"35 395 OFFCURVE",
"35 259 CURVE SMOOTH",
"35 54 OFFCURVE",
"156 -15 OFFCURVE",
"267 -15 CURVE SMOOTH"
);
},
{
closed = 1;
nodes = (
"163 277 OFFCURVE",
"149 295 OFFCURVE",
"149 329 CURVE SMOOTH",
"149 361 OFFCURVE",
"163 379 OFFCURVE",
"184 379 CURVE SMOOTH",
"205 379 OFFCURVE",
"220 361 OFFCURVE",
"220 329 CURVE SMOOTH",
"220 295 OFFCURVE",
"205 277 OFFCURVE",
"184 277 CURVE SMOOTH"
);
},
{
closed = 1;
nodes = (
"494 625 OFFCURVE",
"489 625 OFFCURVE",
"483 626 CURVE",
"483 634 LINE SMOOTH",
"483 690 OFFCURVE",
"504 705 OFFCURVE",
"524 705 CURVE SMOOTH",
"545 705 OFFCURVE",
"559 692 OFFCURVE",
"559 672 CURVE SMOOTH",
"559 648 OFFCURVE",
"545 625 OFFCURVE",
"499 625 CURVE SMOOTH"
);
}
);
width = 689;
}
);
unicode = 110D8;
},
{
glyphname = u110D9;
lastChange = "2019-11-26 14:30:11 +0000";
layers = (
{
layerId = UUID0;
paths = (
{
closed = 1;
nodes = (
"348 -14 OFFCURVE",
"405 83 OFFCURVE",
"405 249 CURVE SMOOTH",
"405 800 LINE",
"80 800 LINE",
"80 630 LINE",
"150 630 LINE",
"150 740 LINE",
"335 740 LINE",
"335 250 LINE SMOOTH",
"335 110 OFFCURVE",
"302 52 OFFCURVE",
"225 52 CURVE SMOOTH",
"162 52 OFFCURVE",
"114 106 OFFCURVE",
"100 217 CURVE",
"97 210 LINE",
"114 191 OFFCURVE",
"141 172 OFFCURVE",
"180 172 CURVE SMOOTH",
"249 172 OFFCURVE",
"300 235 OFFCURVE",
"300 322 CURVE SMOOTH",
"300 409 OFFCURVE",
"254 476 OFFCURVE",
"174 476 CURVE SMOOTH",
"82 476 OFFCURVE",
"40 384 OFFCURVE",
"40 289 CURVE SMOOTH",
"40 53 OFFCURVE",
"126 -14 OFFCURVE",
"223 -14 CURVE SMOOTH"
);
},
{
closed = 1;
nodes = (
"136 234 OFFCURVE",
"110 272 OFFCURVE",
"110 325 CURVE SMOOTH",
"110 377 OFFCURVE",
"136 414 OFFCURVE",
"175 414 CURVE SMOOTH",
"212 414 OFFCURVE",
"232 377 OFFCURVE",
"232 325 CURVE SMOOTH",
"232 272 OFFCURVE",
"212 234 OFFCURVE",
"175 234 CURVE SMOOTH"
);
}
);
width = 485;
},
{
layerId = "5FD33E09-9304-4171-B46D-1DFFD4F4F5B5";
paths = (
{
closed = 1;
nodes = (
"398 -15 OFFCURVE",
"489 65 OFFCURVE",
"489 291 CURVE SMOOTH",
"489 800 LINE",
"62 800 LINE",
"62 600 LINE",
"182 600 LINE",
"182 675 LINE",
"357 675 LINE",
"357 288 LINE SMOOTH",
"357 160 OFFCURVE",
"319 120 OFFCURVE",
"263 120 CURVE SMOOTH",
"217 120 OFFCURVE",
"169 146 OFFCURVE",
"160 234 CURVE",
"148 211 LINE",
"164 201 OFFCURVE",
"181 196 OFFCURVE",
"203 196 CURVE SMOOTH",
"267 196 OFFCURVE",
"321 250 OFFCURVE",
"321 333 CURVE SMOOTH",
"321 417 OFFCURVE",
"264 476 OFFCURVE",
"191 476 CURVE SMOOTH",
"109 476 OFFCURVE",
"35 400 OFFCURVE",
"35 248 CURVE SMOOTH",
"35 49 OFFCURVE",
"161 -15 OFFCURVE",
"265 -15 CURVE SMOOTH"
);
},
{
closed = 1;
nodes = (
"168 277 OFFCURVE",
"154 295 OFFCURVE",
"154 329 CURVE SMOOTH",
"154 361 OFFCURVE",
"168 379 OFFCURVE",
"189 379 CURVE SMOOTH",
"210 379 OFFCURVE",
"225 361 OFFCURVE",
"225 329 CURVE SMOOTH",
"225 295 OFFCURVE",
"210 277 OFFCURVE",
"189 277 CURVE SMOOTH"
);
}
);
width = 559;
}
);
unicode = 110D9;
},
{
glyphname = u110DA;
lastChange = "2019-11-21 16:31:51 +0000";
layers = (
{
layerId = UUID0;
paths = (
{
closed = 1;
nodes = (
"324 -14 OFFCURVE",
"396 48 OFFCURVE",
"396 165 CURVE SMOOTH",
"396 244 OFFCURVE",
"355 298 OFFCURVE",
"283 298 CURVE SMOOTH",
"219 298 OFFCURVE",
"175 247 OFFCURVE",
"175 178 CURVE SMOOTH",
"175 99 OFFCURVE",
"222 65 OFFCURVE",
"284 62 CURVE",
"277 56 OFFCURVE",
"263 52 OFFCURVE",
"234 52 CURVE SMOOTH",
"177 52 OFFCURVE",
"114 93 OFFCURVE",
"114 233 CURVE SMOOTH",
"114 314 OFFCURVE",
"140 410 OFFCURVE",
"231 410 CURVE SMOOTH",
"272 410 OFFCURVE",
"303 394 OFFCURVE",
"321 357 CURVE",
"391 357 LINE",
"391 800 LINE",
"76 800 LINE",
"76 630 LINE",
"146 630 LINE",
"146 740 LINE",
"321 740 LINE",
"321 423 LINE",
"335 432 LINE",
"314 458 OFFCURVE",
"272 476 OFFCURVE",
"229 476 CURVE SMOOTH",
"105 476 OFFCURVE",
"40 357 OFFCURVE",
"40 232 CURVE SMOOTH",
"40 85 OFFCURVE",
"117 -14 OFFCURVE",
"228 -14 CURVE SMOOTH"
);
},
{
closed = 1;
nodes = (
"256 116 OFFCURVE",
"233 136 OFFCURVE",
"233 178 CURVE SMOOTH",
"233 214 OFFCURVE",
"253 240 OFFCURVE",
"283 240 CURVE SMOOTH",
"312 240 OFFCURVE",
"332 214 OFFCURVE",
"332 178 CURVE SMOOTH",
"332 136 OFFCURVE",
"314 116 OFFCURVE",
"286 116 CURVE SMOOTH"
);
}
);
width = 476;
},
{
layerId = "5FD33E09-9304-4171-B46D-1DFFD4F4F5B5";
paths = (
{
closed = 1;
nodes = (
"431 -15 OFFCURVE",
"500 73 OFFCURVE",
"500 167 CURVE SMOOTH",
"500 265 OFFCURVE",
"437 315 OFFCURVE",
"366 315 CURVE SMOOTH",
"290 315 OFFCURVE",
"236 262 OFFCURVE",
"236 182 CURVE SMOOTH",
"236 148 OFFCURVE",
"249 123 OFFCURVE",
"262 110 CURVE",
"259 109 OFFCURVE",
"258 109 OFFCURVE",
"257 109 CURVE SMOOTH",
"232 109 OFFCURVE",
"170 137 OFFCURVE",
"170 252 CURVE SMOOTH",
"170 329 OFFCURVE",
"212 404 OFFCURVE",
"285 404 CURVE SMOOTH",
"319 404 OFFCURVE",
"341 387 OFFCURVE",
"350 375 CURVE",
"482 375 LINE",
"482 800 LINE",
"61 800 LINE",
"61 600 LINE",
"176 600 LINE",
"176 675 LINE",
"350 675 LINE",
"350 462 LINE",
"375 481 LINE",
"356 501 OFFCURVE",
"325 527 OFFCURVE",
"273 527 CURVE SMOOTH",
"124 528 OFFCURVE",
"35 387 OFFCURVE",
"35 250 CURVE SMOOTH",
"35 88 OFFCURVE",
"145 -15 OFFCURVE",
"288 -15 CURVE SMOOTH"
);
},
{
closed = 1;
nodes = (
"347 131 OFFCURVE",
"332 149 OFFCURVE",
"332 175 CURVE SMOOTH",
"332 200 OFFCURVE",
"347 218 OFFCURVE",
"368 218 CURVE SMOOTH",
"389 218 OFFCURVE",
"403 200 OFFCURVE",
"403 175 CURVE SMOOTH",
"403 149 OFFCURVE",
"389 131 OFFCURVE",
"368 131 CURVE SMOOTH"
);
}
);
width = 570;
}
);
unicode = 110DA;
},
{
glyphname = u110DB;
lastChange = "2019-11-26 14:29:00 +0000";
layers = (
{
layerId = UUID0;
paths = (
{
closed = 1;
nodes = (
"370 -14 OFFCURVE",
"467 73 OFFCURVE",
"467 191 CURVE SMOOTH",
"467 234 OFFCURVE",
"456 333 OFFCURVE",
"363 373 CURVE",
"363 616 LINE",
"243 521 LINE",
"267 519 LINE",
"267 531 OFFCURVE",
"267 544 OFFCURVE",
"267 556 CURVE SMOOTH",
"267 644 LINE SMOOTH",
"267 732 OFFCURVE",
"244 814 OFFCURVE",
"148 814 CURVE SMOOTH",
"84 814 OFFCURVE",
"40 763 OFFCURVE",
"40 694 CURVE SMOOTH",
"40 625 OFFCURVE",
"84 574 OFFCURVE",
"148 574 CURVE SMOOTH",
"166 574 OFFCURVE",
"182 578 OFFCURVE",
"197 585 CURVE",
"197 408 LINE",
"315 516 LINE",
"293 517 LINE",
"293 504 OFFCURVE",
"293 491 OFFCURVE",
"293 478 CURVE SMOOTH",
"293 331 LINE",
"378 312 OFFCURVE",
"393 248 OFFCURVE",
"393 196 CURVE SMOOTH",
"393 102 OFFCURVE",
"316 52 OFFCURVE",
"247 52 CURVE SMOOTH",
"224 52 OFFCURVE",
"205 54 OFFCURVE",
"187 62 CURVE",
"187 63 LINE",
"248 63 OFFCURVE",
"286 114 OFFCURVE",
"286 178 CURVE SMOOTH",
"286 247 OFFCURVE",
"242 298 OFFCURVE",
"178 298 CURVE SMOOTH",
"114 298 OFFCURVE",
"60 248 OFFCURVE",
"60 165 CURVE SMOOTH",
"60 54 OFFCURVE",
"137 -14 OFFCURVE",
"260 -14 CURVE SMOOTH"
);
},
{
closed = 1;
nodes = (
"149 116 OFFCURVE",
"129 142 OFFCURVE",
"129 178 CURVE SMOOTH",
"129 214 OFFCURVE",
"149 240 OFFCURVE",
"178 240 CURVE SMOOTH",
"208 240 OFFCURVE",
"228 214 OFFCURVE",
"228 178 CURVE SMOOTH",
"228 142 OFFCURVE",
"208 116 OFFCURVE",
"178 116 CURVE SMOOTH"
);
},
{
closed = 1;
nodes = (
"118 632 OFFCURVE",
"98 658 OFFCURVE",
"98 694 CURVE SMOOTH",
"98 730 OFFCURVE",
"118 756 OFFCURVE",
"148 756 CURVE SMOOTH",
"177 756 OFFCURVE",
"197 730 OFFCURVE",
"197 694 CURVE SMOOTH",
"197 658 OFFCURVE",
"177 632 OFFCURVE",
"148 632 CURVE SMOOTH"
);
}
);
width = 507;
},
{
layerId = "5FD33E09-9304-4171-B46D-1DFFD4F4F5B5";
paths = (
{
closed = 1;
nodes = (
"419 -15 OFFCURVE",
"527 87 OFFCURVE",
"527 240 CURVE SMOOTH",
"527 330 OFFCURVE",
"489 391 OFFCURVE",
"438 424 CURVE",
"438 667 LINE",
"282 536 LINE",
"299 533 LINE",
"302 547 OFFCURVE",
"309 564 OFFCURVE",
"309 607 CURVE SMOOTH",
"309 639 LINE SMOOTH",
"309 759 OFFCURVE",
"247 815 OFFCURVE",
"168 815 CURVE SMOOTH",
"95 815 OFFCURVE",
"35 754 OFFCURVE",
"35 668 CURVE SMOOTH",
"35 590 OFFCURVE",
"97 542 OFFCURVE",
"158 542 CURVE SMOOTH",
"173 542 OFFCURVE",
"184 545 OFFCURVE",
"188 548 CURVE",
"188 369 LINE",
"349 485 LINE",
"321 487 LINE",
"317 473 OFFCURVE",
"312 450 OFFCURVE",
"312 424 CURVE SMOOTH",
"312 354 LINE",
"349 344 OFFCURVE",
"392 305 OFFCURVE",
"392 231 CURVE SMOOTH",
"392 136 OFFCURVE",
"323 109 OFFCURVE",
"295 109 CURVE SMOOTH",
"293 109 OFFCURVE",
"291 109 OFFCURVE",
"290 109 CURVE",
"290 111 LINE",
"304 120 OFFCURVE",
"319 148 OFFCURVE",
"319 185 CURVE SMOOTH",
"319 262 OFFCURVE",
"265 315 OFFCURVE",
"190 315 CURVE SMOOTH",
"118 315 OFFCURVE",
"55 265 OFFCURVE",
"55 170 CURVE SMOOTH",
"55 73 OFFCURVE",
"128 -15 OFFCURVE",
"275 -15 CURVE SMOOTH"
);
},
{
closed = 1;
nodes = (
"166 131 OFFCURVE",
"152 149 OFFCURVE",
"152 175 CURVE SMOOTH",
"152 200 OFFCURVE",
"166 218 OFFCURVE",
"187 218 CURVE SMOOTH",
"208 218 OFFCURVE",
"223 200 OFFCURVE",
"223 175 CURVE SMOOTH",
"223 149 OFFCURVE",
"208 131 OFFCURVE",
"187 131 CURVE SMOOTH"
);
},
{
closed = 1;
nodes = (
"146 628 OFFCURVE",
"132 646 OFFCURVE",
"132 671 CURVE SMOOTH",
"132 697 OFFCURVE",
"146 717 OFFCURVE",
"168 717 CURVE SMOOTH",
"189 717 OFFCURVE",
"203 697 OFFCURVE",
"203 673 CURVE SMOOTH",
"203 646 OFFCURVE",
"189 628 OFFCURVE",
"168 628 CURVE SMOOTH"
);
}
);
width = 562;
}
);
unicode = 110DB;
},
{
glyphname = u110DC;
lastChange = "2019-11-26 14:29:53 +0000";
layers = (
{
layerId = UUID0;
paths = (
{
closed = 1;
nodes = (
"348 -14 OFFCURVE",
"405 83 OFFCURVE",
"405 249 CURVE SMOOTH",
"405 800 LINE",
"335 800 LINE",
"335 788 LINE SMOOTH",
"335 720 OFFCURVE",
"284 678 OFFCURVE",
"221 678 CURVE SMOOTH",
"164 678 OFFCURVE",
"125 716 OFFCURVE",
"125 776 CURVE SMOOTH",
"125 800 LINE",
"55 800 LINE",
"55 776 LINE SMOOTH",
"55 657 OFFCURVE",
"147 612 OFFCURVE",
"224 612 CURVE SMOOTH",
"271 612 OFFCURVE",
"312 628 OFFCURVE",
"335 657 CURVE",
"335 250 LINE SMOOTH",
"335 110 OFFCURVE",
"302 52 OFFCURVE",
"225 52 CURVE SMOOTH",
"162 52 OFFCURVE",
"114 106 OFFCURVE",
"100 217 CURVE",
"97 210 LINE",
"114 191 OFFCURVE",
"141 172 OFFCURVE",
"181 172 CURVE SMOOTH",
"249 172 OFFCURVE",
"300 235 OFFCURVE",
"300 322 CURVE SMOOTH",
"300 409 OFFCURVE",
"254 476 OFFCURVE",
"174 476 CURVE SMOOTH",
"82 476 OFFCURVE",
"40 385 OFFCURVE",
"40 290 CURVE SMOOTH",
"40 59 OFFCURVE",
"126 -14 OFFCURVE",
"223 -14 CURVE SMOOTH"
);
},
{
closed = 1;
nodes = (
"136 234 OFFCURVE",
"110 272 OFFCURVE",
"110 325 CURVE SMOOTH",
"110 377 OFFCURVE",
"136 414 OFFCURVE",
"175 414 CURVE SMOOTH",
"212 414 OFFCURVE",
"232 377 OFFCURVE",
"232 325 CURVE SMOOTH",
"232 272 OFFCURVE",
"212 234 OFFCURVE",
"175 234 CURVE SMOOTH"
);
}
);
width = 485;
},
{
layerId = "5FD33E09-9304-4171-B46D-1DFFD4F4F5B5";
paths = (
{
closed = 1;
nodes = (
"428 -14 OFFCURVE",
"489 107 OFFCURVE",
"489 288 CURVE SMOOTH",
"490 800 LINE",
"358 800 LINE",
"358 796 LINE SMOOTH",
"358 741 OFFCURVE",
"321 713 OFFCURVE",
"275 713 CURVE SMOOTH",
"240 713 OFFCURVE",
"197 736 OFFCURVE",
"197 792 CURVE SMOOTH",
"197 800 LINE",
"65 800 LINE",
"65 787 LINE SMOOTH",
"65 643 OFFCURVE",
"180 589 OFFCURVE",
"263 589 CURVE SMOOTH",
"311 589 OFFCURVE",
"344 605 OFFCURVE",
"358 624 CURVE",
"357 288 LINE SMOOTH",
"357 162 OFFCURVE",
"319 120 OFFCURVE",
"265 120 CURVE SMOOTH",
"222 120 OFFCURVE",
"173 146 OFFCURVE",
"160 231 CURVE",
"149 211 LINE",
"165 201 OFFCURVE",
"183 196 OFFCURVE",
"203 196 CURVE SMOOTH",
"267 196 OFFCURVE",
"321 250 OFFCURVE",
"321 333 CURVE SMOOTH",
"321 417 OFFCURVE",
"264 476 OFFCURVE",
"191 476 CURVE SMOOTH",
"109 476 OFFCURVE",
"35 400 OFFCURVE",
"35 255 CURVE SMOOTH",
"35 59 OFFCURVE",
"160 -16 OFFCURVE",
"274 -15 CURVE SMOOTH"
);
},
{
closed = 1;
nodes = (
"168 277 OFFCURVE",
"154 295 OFFCURVE",
"154 329 CURVE SMOOTH",
"154 361 OFFCURVE",
"168 379 OFFCURVE",
"189 379 CURVE SMOOTH",
"210 379 OFFCURVE",
"225 361 OFFCURVE",
"225 329 CURVE SMOOTH",
"225 295 OFFCURVE",
"210 277 OFFCURVE",
"189 277 CURVE SMOOTH"
);
}
);
width = 560;
}
);
unicode = 110DC;
},
{
glyphname = u110DD;
lastChange = "2019-11-25 08:27:20 +0000";
layers = (
{
layerId = UUID0;
paths = (
{
closed = 1;
nodes = (
"422 -14 OFFCURVE",
"462 82 OFFCURVE",
"462 182 CURVE SMOOTH",
"462 336 OFFCURVE",
"388 452 OFFCURVE",
"276 452 CURVE SMOOTH",
"236 452 OFFCURVE",
"190 436 OFFCURVE",
"153 392 CURVE",
"153 575 LINE",
"162 574 OFFCURVE",
"171 574 OFFCURVE",
"180 574 CURVE SMOOTH",
"258 574 OFFCURVE",
"306 623 OFFCURVE",
"306 693 CURVE SMOOTH",
"306 765 OFFCURVE",
"258 814 OFFCURVE",
"198 814 CURVE SMOOTH",
"143 814 OFFCURVE",
"83 780 OFFCURVE",
"83 666 CURVE SMOOTH",
"83 659 LINE",
"61 669 OFFCURVE",
"40 682 OFFCURVE",
"20 696 CURVE",
"20 624 LINE",
"38 613 OFFCURVE",
"59 603 OFFCURVE",
"83 594 CURVE",
"83 0 LINE",
"153 0 LINE",
"153 299 LINE",
"177 350 OFFCURVE",
"215 386 OFFCURVE",
"268 386 CURVE SMOOTH",
"319 386 OFFCURVE",
"372 346 OFFCURVE",
"387 254 CURVE",
"393 262 LINE",
"378 281 OFFCURVE",
"351 290 OFFCURVE",
"324 290 CURVE SMOOTH",
"258 290 OFFCURVE",
"202 223 OFFCURVE",
"202 136 CURVE SMOOTH",
"202 44 OFFCURVE",
"253 -14 OFFCURVE",
"330 -14 CURVE SMOOTH"
);
},
{
closed = 1;
nodes = (
"292 48 OFFCURVE",
"266 86 OFFCURVE",
"266 139 CURVE SMOOTH",
"266 191 OFFCURVE",
"292 228 OFFCURVE",
"331 228 CURVE SMOOTH",
"368 228 OFFCURVE",
"388 191 OFFCURVE",
"388 139 CURVE SMOOTH",
"388 86 OFFCURVE",
"368 48 OFFCURVE",
"331 48 CURVE SMOOTH"
);
},
{
closed = 1;
nodes = (
"173 634 OFFCURVE",
"163 635 OFFCURVE",
"153 636 CURVE",
"153 667 LINE SMOOTH",
"153 740 OFFCURVE",
"174 756 OFFCURVE",
"198 756 CURVE SMOOTH",
"227 756 OFFCURVE",
"247 732 OFFCURVE",
"247 693 CURVE SMOOTH",
"247 656 OFFCURVE",
"227 634 OFFCURVE",
"182 634 CURVE SMOOTH"
);
}
);
width = 502;
},
{
layerId = "5FD33E09-9304-4171-B46D-1DFFD4F4F5B5";
paths = (
{
closed = 1;
nodes = (
"494 -15 OFFCURVE",
"562 45 OFFCURVE",
"562 178 CURVE SMOOTH",
"562 378 OFFCURVE",
"451 451 OFFCURVE",
"369 452 CURVE SMOOTH",
"304 453 OFFCURVE",
"257 427 OFFCURVE",
"231 398 CURVE",
"231 520 LINE",
"234 520 OFFCURVE",
"238 520 OFFCURVE",
"241 520 CURVE SMOOTH",
"355 520 OFFCURVE",
"408 594 OFFCURVE",
"408 672 CURVE SMOOTH",
"408 742 OFFCURVE",
"361 814 OFFCURVE",
"267 814 CURVE SMOOTH",
"203 814 OFFCURVE",
"104 777 OFFCURVE",
"104 666 CURVE SMOOTH",
"104 664 LINE",
"77 675 OFFCURVE",
"48 689 OFFCURVE",
"15 706 CURVE",
"15 581 LINE",
"45 567 OFFCURVE",
"73 555 OFFCURVE",
"99 547 CURVE",
"99 0 LINE",
"231 0 LINE",
"231 249 LINE",
"258 290 OFFCURVE",
"303 317 OFFCURVE",
"347 317 CURVE SMOOTH",
"384 317 OFFCURVE",
"423 295 OFFCURVE",
"431 250 CURVE",
"444 262 LINE",
"437 269 OFFCURVE",
"428 272 OFFCURVE",
"415 272 CURVE SMOOTH",
"343 271 OFFCURVE",
"285 220 OFFCURVE",
"286 131 CURVE SMOOTH",
"287 30 OFFCURVE",
"354 -15 OFFCURVE",
"422 -15 CURVE SMOOTH"
);
},
{
closed = 1;
nodes = (
"399 81 OFFCURVE",
"382 101 OFFCURVE",
"382 138 CURVE SMOOTH",
"382 177 OFFCURVE",
"399 197 OFFCURVE",
"423 197 CURVE SMOOTH",
"447 197 OFFCURVE",
"463 177 OFFCURVE",
"463 138 CURVE SMOOTH",
"463 101 OFFCURVE",
"447 81 OFFCURVE",
"423 81 CURVE SMOOTH"
);
},
{
closed = 1;
nodes = (
"242 625 OFFCURVE",
"237 625 OFFCURVE",
"231 626 CURVE",
"231 634 LINE SMOOTH",
"231 689 OFFCURVE",
"249 704 OFFCURVE",
"267 704 CURVE SMOOTH",
"283 704 OFFCURVE",
"293 690 OFFCURVE",
"293 667 CURVE SMOOTH",
"293 646 OFFCURVE",
"282 625 OFFCURVE",
"247 625 CURVE SMOOTH"
);
}
);
width = 597;
},
{
associatedMasterId = "5FD33E09-9304-4171-B46D-1DFFD4F4F5B5";
layerId = "9D000A40-7416-400B-BBA9-8C49DA3D16A5";
name = "Nov 21 19, 16:47";
paths = (
{
closed = 1;
nodes = (
"495 -15 OFFCURVE",
"561 43 OFFCURVE",
"562 178 CURVE SMOOTH",
"563 382 OFFCURVE",
"448 454 OFFCURVE",
"356 452 CURVE SMOOTH",
"303 451 OFFCURVE",
"256 426 OFFCURVE",
"231 397 CURVE",
"231 520 LINE",
"234 520 OFFCURVE",
"238 520 OFFCURVE",
"241 520 CURVE SMOOTH",
"355 519 OFFCURVE",
"408 594 OFFCURVE",
"408 672 CURVE SMOOTH",
"408 742 OFFCURVE",
"361 814 OFFCURVE",
"267 814 CURVE SMOOTH",
"203 814 OFFCURVE",
"104 777 OFFCURVE",
"104 666 CURVE SMOOTH",
"104 664 LINE",
"77 675 OFFCURVE",
"48 689 OFFCURVE",
"15 706 CURVE",
"15 581 LINE",
"45 567 OFFCURVE",
"73 555 OFFCURVE",
"99 547 CURVE",
"99 0 LINE",
"231 0 LINE",
"231 247 LINE",
"257 289 OFFCURVE",
"302 317 OFFCURVE",
"347 317 CURVE SMOOTH",
"385 317 OFFCURVE",
"427 296 OFFCURVE",
"432 250 CURVE",
"443 258 LINE",
"433 268 OFFCURVE",
"426 272 OFFCURVE",
"410 272 CURVE SMOOTH",
"347 272 OFFCURVE",
"285 221 OFFCURVE",
"285 134 CURVE SMOOTH",
"286 38 OFFCURVE",
"343 -15 OFFCURVE",
"423 -15 CURVE SMOOTH"
);
},
{
closed = 1;
nodes = (
"399 81 OFFCURVE",
"382 101 OFFCURVE",
"382 138 CURVE SMOOTH",
"382 177 OFFCURVE",
"399 197 OFFCURVE",
"423 197 CURVE SMOOTH",
"447 197 OFFCURVE",
"463 177 OFFCURVE",
"463 138 CURVE SMOOTH",
"463 101 OFFCURVE",
"447 81 OFFCURVE",
"423 81 CURVE SMOOTH"
);
},
{
closed = 1;
nodes = (
"242 625 OFFCURVE",
"237 625 OFFCURVE",
"231 626 CURVE",
"231 634 LINE SMOOTH",
"231 689 OFFCURVE",
"249 704 OFFCURVE",
"267 704 CURVE SMOOTH",
"283 704 OFFCURVE",
"293 690 OFFCURVE",
"293 667 CURVE SMOOTH",
"293 646 OFFCURVE",
"282 625 OFFCURVE",
"247 625 CURVE SMOOTH"
);
}
);
width = 597;
},
{
associatedMasterId = "5FD33E09-9304-4171-B46D-1DFFD4F4F5B5";
layerId = "B2A00AD1-B550-4D38-9635-FA4C1C2C1659";
name = "Nov 21 19, 16:56";
paths = (
{
closed = 1;
nodes = (
"481 -14 OFFCURVE",
"522 79 OFFCURVE",
"522 175 CURVE SMOOTH",
"522 333 OFFCURVE",
"447 452 OFFCURVE",
"333 452 CURVE SMOOTH",
"293 452 OFFCURVE",
"247 436 OFFCURVE",
"210 392 CURVE",
"210 520 LINE",
"219 519 OFFCURVE",
"228 519 OFFCURVE",
"237 519 CURVE SMOOTH",
"316 519 OFFCURVE",
"381 578 OFFCURVE",
"381 674 CURVE SMOOTH",
"381 757 OFFCURVE",
"320 814 OFFCURVE",
"237 814 CURVE SMOOTH",
"157 814 OFFCURVE",
"78 766 OFFCURVE",
"78 666 CURVE SMOOTH",
"78 659 LINE",
"56 669 OFFCURVE",
"35 682 OFFCURVE",
"15 696 CURVE",
"15 569 LINE",
"33 558 OFFCURVE",
"54 548 OFFCURVE",
"78 539 CURVE",
"78 0 LINE",
"210 0 LINE",
"210 240 LINE",
"234 291 OFFCURVE",
"272 327 OFFCURVE",
"325 327 CURVE SMOOTH",
"367 327 OFFCURVE",
"410 293 OFFCURVE",
"422 216 CURVE",
"450 262 LINE",
"435 281 OFFCURVE",
"408 290 OFFCURVE",
"381 290 CURVE SMOOTH",
"315 290 OFFCURVE",
"259 223 OFFCURVE",
"259 136 CURVE SMOOTH",
"259 44 OFFCURVE",
"310 -14 OFFCURVE",
"387 -14 CURVE SMOOTH"
);
},
{
closed = 1;
nodes = (
"361 79 OFFCURVE",
"344 104 OFFCURVE",
"344 139 CURVE SMOOTH",
"344 173 OFFCURVE",
"361 197 OFFCURVE",
"387 197 CURVE SMOOTH",
"411 197 OFFCURVE",
"424 173 OFFCURVE",
"424 139 CURVE SMOOTH",
"424 104 OFFCURVE",
"411 79 OFFCURVE",
"387 79 CURVE SMOOTH"
);
},
{
closed = 1;
nodes = (
"222 634 OFFCURVE",
"216 635 OFFCURVE",
"210 635 CURVE",
"210 652 LINE SMOOTH",
"210 691 OFFCURVE",
"223 700 OFFCURVE",
"238 700 CURVE SMOOTH",
"256 700 OFFCURVE",
"268 687 OFFCURVE",
"268 666 CURVE SMOOTH",
"268 646 OFFCURVE",
"256 634 OFFCURVE",
"228 634 CURVE SMOOTH"
);
}
);
width = 557;
},
{
associatedMasterId = "5FD33E09-9304-4171-B46D-1DFFD4F4F5B5";
layerId = "0191F4CD-9127-4D4B-BDE1-68BE3BDC0111";
name = "Nov 25 19, 08:25";
paths = (
{
closed = 1;
nodes = (
"481 -14 OFFCURVE",
"522 79 OFFCURVE",
"522 175 CURVE SMOOTH",
"522 333 OFFCURVE",
"447 452 OFFCURVE",
"333 452 CURVE SMOOTH",
"293 452 OFFCURVE",
"247 436 OFFCURVE",
"210 392 CURVE",
"210 520 LINE",
"213 520 OFFCURVE",
"217 520 OFFCURVE",
"220 520 CURVE SMOOTH",
"334 520 OFFCURVE",
"387 594 OFFCURVE",
"387 672 CURVE SMOOTH",
"387 742 OFFCURVE",
"340 814 OFFCURVE",
"246 814 CURVE SMOOTH",
"182 814 OFFCURVE",
"83 777 OFFCURVE",
"83 666 CURVE SMOOTH",
"83 664 LINE",
"56 675 OFFCURVE",
"27 689 OFFCURVE",
"-6 706 CURVE",
"-6 581 LINE",
"24 567 OFFCURVE",
"52 555 OFFCURVE",
"78 547 CURVE",
"78 0 LINE",
"210 0 LINE",
"210 240 LINE",
"234 291 OFFCURVE",
"272 327 OFFCURVE",
"325 327 CURVE SMOOTH",
"356 327 OFFCURVE",
"388 308 OFFCURVE",
"407 266 CURVE",
"413 270 LINE",
"402 286 OFFCURVE",
"394 290 OFFCURVE",
"381 290 CURVE SMOOTH",
"315 290 OFFCURVE",
"259 223 OFFCURVE",
"259 136 CURVE SMOOTH",
"259 44 OFFCURVE",
"310 -14 OFFCURVE",
"387 -14 CURVE SMOOTH"
);
},
{
closed = 1;
nodes = (
"361 79 OFFCURVE",
"344 104 OFFCURVE",
"344 139 CURVE SMOOTH",
"344 173 OFFCURVE",
"361 197 OFFCURVE",
"387 197 CURVE SMOOTH",
"411 197 OFFCURVE",
"424 173 OFFCURVE",
"424 139 CURVE SMOOTH",
"424 104 OFFCURVE",
"411 79 OFFCURVE",
"387 79 CURVE SMOOTH"
);
},
{
closed = 1;
nodes = (
"221 625 OFFCURVE",
"216 625 OFFCURVE",
"210 626 CURVE",
"210 634 LINE SMOOTH",
"210 689 OFFCURVE",
"228 704 OFFCURVE",
"246 704 CURVE SMOOTH",
"262 704 OFFCURVE",
"272 690 OFFCURVE",
"272 667 CURVE SMOOTH",
"272 646 OFFCURVE",
"261 625 OFFCURVE",
"226 625 CURVE SMOOTH"
);
}
);
width = 557;
}
);
unicode = 110DD;
},
{
glyphname = u110DE;
lastChange = "2019-11-26 13:47:38 +0000";
layers = (
{
layerId = UUID0;
paths = (
{
closed = 1;
nodes = (
"337 -14 OFFCURVE",
"409 61 OFFCURVE",
"409 165 CURVE SMOOTH",
"409 251 OFFCURVE",
"360 298 OFFCURVE",
"296 298 CURVE SMOOTH",
"232 298 OFFCURVE",
"188 247 OFFCURVE",
"188 178 CURVE SMOOTH",
"188 111 OFFCURVE",
"233 62 OFFCURVE",
"294 62 CURVE",
"286 55 OFFCURVE",
"268 52 OFFCURVE",
"247 52 CURVE SMOOTH",
"183 52 OFFCURVE",
"114 93 OFFCURVE",
"114 210 CURVE SMOOTH",
"114 324 OFFCURVE",
"170 428 OFFCURVE",
"261 428 CURVE SMOOTH",
"274 428 LINE",
"274 488 LINE",
"261 488 LINE SMOOTH",
"228 488 OFFCURVE",
"212 497 OFFCURVE",
"212 528 CURVE SMOOTH",
"212 544 OFFCURVE",
"220 568 OFFCURVE",
"230 593 CURVE SMOOTH",
"242 622 OFFCURVE",
"252 653 OFFCURVE",
"252 678 CURVE SMOOTH",
"252 768 OFFCURVE",
"183 800 OFFCURVE",
"128 800 CURVE SMOOTH",
"97 800 LINE",
"97 740 LINE",
"117 740 LINE SMOOTH",
"161 740 OFFCURVE",
"179 717 OFFCURVE",
"179 673 CURVE SMOOTH",
"179 640 OFFCURVE",
"167 611 OFFCURVE",
"156 585 CURVE SMOOTH",
"146 562 OFFCURVE",
"138 540 OFFCURVE",
"138 520 CURVE SMOOTH",
"138 486 OFFCURVE",
"149 464 OFFCURVE",
"188 439 CURVE",
"180 462 LINE",
"83 432 OFFCURVE",
"40 312 OFFCURVE",
"40 214 CURVE SMOOTH",
"40 85 OFFCURVE",
"122 -14 OFFCURVE",
"241 -14 CURVE SMOOTH"
);
},
{
closed = 1;
nodes = (
"266 116 OFFCURVE",
"246 142 OFFCURVE",
"246 178 CURVE SMOOTH",
"246 214 OFFCURVE",
"266 240 OFFCURVE",
"296 240 CURVE SMOOTH",
"325 240 OFFCURVE",
"345 214 OFFCURVE",
"345 178 CURVE SMOOTH",
"345 142 OFFCURVE",
"325 116 OFFCURVE",
"296 116 CURVE SMOOTH"
);
}
);
width = 449;
},
{
layerId = "5FD33E09-9304-4171-B46D-1DFFD4F4F5B5";
paths = (
{
closed = 1;
nodes = (
"425 -15 OFFCURVE",
"500 69 OFFCURVE",
"500 167 CURVE SMOOTH",
"500 265 OFFCURVE",
"437 315 OFFCURVE",
"366 315 CURVE SMOOTH",
"293 315 OFFCURVE",
"236 259 OFFCURVE",
"236 188 CURVE SMOOTH",
"236 151 OFFCURVE",
"252 121 OFFCURVE",
"270 109 CURVE",
"267 109 OFFCURVE",
"266 109 OFFCURVE",
"265 109 CURVE SMOOTH",
"232 109 OFFCURVE",
"170 144 OFFCURVE",
"170 234 CURVE SMOOTH",
"169 326 OFFCURVE",
"239 402 OFFCURVE",
"340 402 CURVE SMOOTH",
"371 402 LINE",
"371 521 LINE",
"362 521 LINE SMOOTH",
"313 521 OFFCURVE",
"295 528 OFFCURVE",
"295 554 CURVE SMOOTH",
"295 569 OFFCURVE",
"301 588 OFFCURVE",
"305 600 CURVE SMOOTH",
"315 629 OFFCURVE",
"319 648 OFFCURVE",
"319 678 CURVE SMOOTH",
"319 768 OFFCURVE",
"250 800 OFFCURVE",
"173 800 CURVE SMOOTH",
"94 800 LINE",
"94 680 LINE",
"124 680 LINE SMOOTH",
"168 680 OFFCURVE",
"186 671 OFFCURVE",
"186 642 CURVE SMOOTH",
"186 624 OFFCURVE",
"180 607 OFFCURVE",
"173 589 CURVE SMOOTH",
"166 571 OFFCURVE",
"161 552 OFFCURVE",
"161 538 CURVE SMOOTH",
"161 508 OFFCURVE",
"176 486 OFFCURVE",
"228 467 CURVE",
"219 489 LINE",
"97 449 OFFCURVE",
"35 332 OFFCURVE",
"35 227 CURVE SMOOTH",
"35 80 OFFCURVE",
"148 -15 OFFCURVE",
"288 -15 CURVE SMOOTH"
);
},
{
closed = 1;
nodes = (
"347 131 OFFCURVE",
"332 149 OFFCURVE",
"332 175 CURVE SMOOTH",
"332 200 OFFCURVE",
"347 218 OFFCURVE",
"368 218 CURVE SMOOTH",
"389 218 OFFCURVE",
"403 200 OFFCURVE",
"403 175 CURVE SMOOTH",
"403 149 OFFCURVE",
"389 131 OFFCURVE",
"368 131 CURVE SMOOTH"
);
}
);
width = 535;
},
{
associatedMasterId = "5FD33E09-9304-4171-B46D-1DFFD4F4F5B5";
layerId = "B957D4B3-28EF-43D7-8CEC-E74FEDD61EE8";
name = "Nov 21 19, 10:04";
paths = (
{
closed = 1;
nodes = (
"433 -15 OFFCURVE",
"515 92 OFFCURVE",
"515 225 CURVE SMOOTH",
"515 338 OFFCURVE",
"445 406 OFFCURVE",
"364 406 CURVE SMOOTH",
"279 406 OFFCURVE",
"217 343 OFFCURVE",
"217 259 CURVE SMOOTH",
"217 178 OFFCURVE",
"273 127 OFFCURVE",
"327 127 CURVE SMOOTH",
"341 127 OFFCURVE",
"351 129 OFFCURVE",
"357 131 CURVE",
"359 125 LINE",
"341 113 OFFCURVE",
"318 109 OFFCURVE",
"297 109 CURVE SMOOTH",
"245 109 OFFCURVE",
"159 147 OFFCURVE",
"159 265 CURVE SMOOTH",
"159 341 OFFCURVE",
"220 428 OFFCURVE",
"319 428 CURVE SMOOTH",
"331 428 LINE",
"331 528 LINE",
"322 528 LINE SMOOTH",
"287 528 OFFCURVE",
"273 537 OFFCURVE",
"273 556 CURVE SMOOTH",
"273 570 OFFCURVE",
"280 584 OFFCURVE",
"290 604 CURVE SMOOTH",
"301 626 OFFCURVE",
"309 648 OFFCURVE",
"309 678 CURVE SMOOTH",
"309 768 OFFCURVE",
"240 800 OFFCURVE",
"163 800 CURVE SMOOTH",
"84 800 LINE",
"84 680 LINE",
"114 680 LINE SMOOTH",
"158 680 OFFCURVE",
"176 671 OFFCURVE",
"176 643 CURVE SMOOTH",
"176 624 OFFCURVE",
"163 606 OFFCURVE",
"153 585 CURVE SMOOTH",
"142 563 OFFCURVE",
"134 545 OFFCURVE",
"134 520 CURVE SMOOTH",
"134 491 OFFCURVE",
"148 464 OFFCURVE",
"194 441 CURVE",
"189 473 LINE",
"56 415 OFFCURVE",
"25 311 OFFCURVE",
"25 241 CURVE SMOOTH",
"25 82 OFFCURVE",
"139 -15 OFFCURVE",
"280 -15 CURVE SMOOTH"
);
},
{
closed = 1;
nodes = (
"342 212 OFFCURVE",
"327 230 OFFCURVE",
"327 256 CURVE SMOOTH",
"327 281 OFFCURVE",
"342 299 OFFCURVE",
"363 299 CURVE SMOOTH",
"384 299 OFFCURVE",
"398 281 OFFCURVE",
"398 256 CURVE SMOOTH",
"398 230 OFFCURVE",
"384 212 OFFCURVE",
"363 212 CURVE SMOOTH"
);
}
);
width = 540;
}
);
unicode = 110DE;
},
{
glyphname = u110DF;
lastChange = "2019-11-26 13:45:12 +0000";
layers = (
{
layerId = UUID0;
paths = (
{
closed = 1;
nodes = (
"319 -14 OFFCURVE",
"392 85 OFFCURVE",
"392 232 CURVE SMOOTH",
"392 502 LINE",
"344 502 LINE",
"336 481 OFFCURVE",
"328 465 OFFCURVE",
"296 465 CURVE SMOOTH",
"288 465 OFFCURVE",
"263 471 OFFCURVE",
"263 514 CURVE SMOOTH",
"263 556 OFFCURVE",
"270 610 OFFCURVE",
"360 750 CURVE",
"360 800 LINE",
"45 800 LINE",
"45 630 LINE",
"115 630 LINE",
"115 740 LINE",
"282 740 LINE",
"233 661 OFFCURVE",
"193 569 OFFCURVE",
"193 506 CURVE SMOOTH",
"193 443 OFFCURVE",
"229 399 OFFCURVE",
"288 399 CURVE SMOOTH",
"307 399 OFFCURVE",
"325 406 OFFCURVE",
"338 417 CURVE",
"322 432 LINE",
"322 233 LINE SMOOTH",
"322 93 OFFCURVE",
"259 52 OFFCURVE",
"192 52 CURVE SMOOTH",
"163 52 OFFCURVE",
"151 58 OFFCURVE",
"141 64 CURVE",
"135 62 LINE",
"141 61 OFFCURVE",
"150 60 OFFCURVE",
"158 60 CURVE SMOOTH",
"212 60 OFFCURVE",
"261 105 OFFCURVE",
"261 178 CURVE SMOOTH",
"261 247 OFFCURVE",
"217 298 OFFCURVE",
"153 298 CURVE SMOOTH",
"89 298 OFFCURVE",
"40 247 OFFCURVE",
"40 165 CURVE SMOOTH",
"40 64 OFFCURVE",
"100 -14 OFFCURVE",
"208 -14 CURVE SMOOTH"
);
},
{
closed = 1;
nodes = (
"124 116 OFFCURVE",
"104 142 OFFCURVE",
"104 178 CURVE SMOOTH",
"104 214 OFFCURVE",
"124 240 OFFCURVE",
"153 240 CURVE SMOOTH",
"183 240 OFFCURVE",
"203 214 OFFCURVE",
"203 178 CURVE SMOOTH",
"203 142 OFFCURVE",
"183 116 OFFCURVE",
"153 116 CURVE SMOOTH"
);
}
);
width = 472;
},
{
layerId = "5FD33E09-9304-4171-B46D-1DFFD4F4F5B5";
paths = (
{
closed = 1;
nodes = (
"381 -15 OFFCURVE",
"490 80 OFFCURVE",
"490 227 CURVE SMOOTH",
"490 512 LINE",
"394 512 LINE",
"385 493 OFFCURVE",
"371 481 OFFCURVE",
"353 481 CURVE SMOOTH",
"336 481 OFFCURVE",
"324 492 OFFCURVE",
"324 514 CURVE SMOOTH",
"324 537 OFFCURVE",
"335 568 OFFCURVE",
"434 685 CURVE",
"434 800 LINE",
"40 800 LINE",
"40 600 LINE",
"155 600 LINE",
"155 675 LINE",
"288 675 LINE",
"225 593 OFFCURVE",
"190 539 OFFCURVE",
"190 480 CURVE SMOOTH",
"190 411 OFFCURVE",
"239 371 OFFCURVE",
"298 371 CURVE SMOOTH",
"337 371 OFFCURVE",
"362 389 OFFCURVE",
"379 402 CURVE",
"358 425 LINE",
"358 234 LINE SMOOTH",
"358 145 OFFCURVE",
"304 111 OFFCURVE",
"270 111 CURVE SMOOTH",
"260 111 OFFCURVE",
"254 114 OFFCURVE",
"250 117 CURVE",
"235 111 LINE",
"241 109 OFFCURVE",
"251 108 OFFCURVE",
"255 108 CURVE SMOOTH",
"274 108 OFFCURVE",
"299 144 OFFCURVE",
"299 190 CURVE SMOOTH",
"299 262 OFFCURVE",
"247 315 OFFCURVE",
"170 315 CURVE SMOOTH",
"98 315 OFFCURVE",
"35 265 OFFCURVE",
"35 171 CURVE SMOOTH",
"35 69 OFFCURVE",
"110 -15 OFFCURVE",
"243 -15 CURVE SMOOTH"
);
},
{
closed = 1;
nodes = (
"146 131 OFFCURVE",
"132 149 OFFCURVE",
"132 175 CURVE SMOOTH",
"132 200 OFFCURVE",
"146 218 OFFCURVE",
"167 218 CURVE SMOOTH",
"188 218 OFFCURVE",
"203 200 OFFCURVE",
"203 175 CURVE SMOOTH",
"203 149 OFFCURVE",
"188 131 OFFCURVE",
"167 131 CURVE SMOOTH"
);
}
);
width = 560;
}
);
unicode = 110DF;
},
{
glyphname = u110E0;
lastChange = "2019-11-26 14:30:49 +0000";
layers = (
{
layerId = UUID0;
paths = (
{
closed = 1;
nodes = (
"359 -14 OFFCURVE",
"445 59 OFFCURVE",
"445 281 CURVE SMOOTH",
"445 414 OFFCURVE",
"393 476 OFFCURVE",
"311 476 CURVE SMOOTH",
"238 476 OFFCURVE",
"185 418 OFFCURVE",
"185 322 CURVE SMOOTH",
"185 230 OFFCURVE",
"236 172 OFFCURVE",
"303 172 CURVE SMOOTH",
"340 172 OFFCURVE",
"377 192 OFFCURVE",
"387 218 CURVE",
"374 218 LINE",
"370 106 OFFCURVE",
"323 52 OFFCURVE",
"260 52 CURVE SMOOTH",
"183 52 OFFCURVE",
"150 110 OFFCURVE",
"150 250 CURVE SMOOTH",
"150 733 LINE",
"166 730 OFFCURVE",
"184 728 OFFCURVE",
"199 728 CURVE SMOOTH",
"215 728 OFFCURVE",
"233 729 OFFCURVE",
"251 733 CURVE",
"250 729 OFFCURVE",
"250 724 OFFCURVE",
"250 720 CURVE SMOOTH",
"250 668 OFFCURVE",
"290 626 OFFCURVE",
"341 626 CURVE SMOOTH",
"392 626 OFFCURVE",
"432 668 OFFCURVE",
"432 720 CURVE SMOOTH",
"432 772 OFFCURVE",
"392 814 OFFCURVE",
"341 814 CURVE SMOOTH",
"324 814 OFFCURVE",
"307 810 OFFCURVE",
"289 803 CURVE SMOOTH",
"266 794 OFFCURVE",
"238 788 OFFCURVE",
"205 788 CURVE SMOOTH",
"177 788 OFFCURVE",
"156 789 OFFCURVE",
"135 800 CURVE",
"80 800 LINE",
"80 249 LINE SMOOTH",
"80 83 OFFCURVE",
"137 -14 OFFCURVE",
"262 -14 CURVE SMOOTH"
);
},
{
closed = 1;
nodes = (
"273 234 OFFCURVE",
"253 272 OFFCURVE",
"253 325 CURVE SMOOTH",
"253 377 OFFCURVE",
"273 414 OFFCURVE",
"310 414 CURVE SMOOTH",
"349 414 OFFCURVE",
"375 377 OFFCURVE",
"375 325 CURVE SMOOTH",
"375 272 OFFCURVE",
"349 234 OFFCURVE",
"310 234 CURVE SMOOTH"
);
},
{
closed = 1;
nodes = (
"317 678 OFFCURVE",
"303 695 OFFCURVE",
"303 720 CURVE SMOOTH",
"303 745 OFFCURVE",
"317 762 OFFCURVE",
"340 762 CURVE SMOOTH",
"365 762 OFFCURVE",
"379 745 OFFCURVE",
"379 720 CURVE SMOOTH",
"379 695 OFFCURVE",
"364 678 OFFCURVE",
"340 678 CURVE SMOOTH"
);
}
);
width = 485;
},
{
layerId = "5FD33E09-9304-4171-B46D-1DFFD4F4F5B5";
paths = (
{
closed = 1;
nodes = (
"413 -15 OFFCURVE",
"527 61 OFFCURVE",
"527 272 CURVE SMOOTH",
"527 402 OFFCURVE",
"455 476 OFFCURVE",
"374 476 CURVE SMOOTH",
"298 476 OFFCURVE",
"241 417 OFFCURVE",
"241 333 CURVE SMOOTH",
"241 250 OFFCURVE",
"295 196 OFFCURVE",
"359 196 CURVE SMOOTH",
"379 196 OFFCURVE",
"397 201 OFFCURVE",
"406 213 CURVE",
"397 216 LINE",
"391 149 OFFCURVE",
"353 120 OFFCURVE",
"305 120 CURVE SMOOTH",
"249 121 OFFCURVE",
"202 161 OFFCURVE",
"202 298 CURVE SMOOTH",
"202 688 LINE",
"212 683 OFFCURVE",
"230 679 OFFCURVE",
"244 679 CURVE SMOOTH",
"260 679 OFFCURVE",
"279 683 OFFCURVE",
"292 695 CURVE",
"291 691 OFFCURVE",
"291 688 OFFCURVE",
"291 686 CURVE SMOOTH",
"291 617 OFFCURVE",
"347 584 OFFCURVE",
"396 584 CURVE SMOOTH",
"453 584 OFFCURVE",
"506 627 OFFCURVE",
"506 697 CURVE SMOOTH",
"506 761 OFFCURVE",
"459 814 OFFCURVE",
"391 814 CURVE SMOOTH",
"367 814 OFFCURVE",
"348 811 OFFCURVE",
"326 804 CURVE SMOOTH",
"299 797 OFFCURVE",
"271 785 OFFCURVE",
"244 785 CURVE SMOOTH",
"222 785 OFFCURVE",
"203 790 OFFCURVE",
"180 800 CURVE",
"70 800 LINE",
"70 295 LINE SMOOTH",
"70 58 OFFCURVE",
"179 -15 OFFCURVE",
"301 -15 CURVE SMOOTH"
);
},
{
closed = 1;
nodes = (
"352 277 OFFCURVE",
"337 295 OFFCURVE",
"337 329 CURVE SMOOTH",
"337 361 OFFCURVE",
"352 379 OFFCURVE",
"373 379 CURVE SMOOTH",
"394 379 OFFCURVE",
"408 361 OFFCURVE",
"408 329 CURVE SMOOTH",
"408 295 OFFCURVE",
"394 277 OFFCURVE",
"373 277 CURVE SMOOTH"
);
},
{
closed = 1;
nodes = (
"376 662 OFFCURVE",
"362 678 OFFCURVE",
"362 697 CURVE SMOOTH",
"362 719 OFFCURVE",
"375 734 OFFCURVE",
"394 734 CURVE SMOOTH",
"415 734 OFFCURVE",
"428 719 OFFCURVE",
"428 697 CURVE SMOOTH",
"428 677 OFFCURVE",
"415 662 OFFCURVE",
"395 662 CURVE SMOOTH"
);
}
);
width = 562;
},
{
associatedMasterId = "5FD33E09-9304-4171-B46D-1DFFD4F4F5B5";
layerId = "609BCDFC-0A24-4CE4-8E8B-628730E5A75E";
name = "Nov 21 19, 11:10";
paths = (
{
closed = 1;
nodes = (
"413 -15 OFFCURVE",
"551 62 OFFCURVE",
"551 278 CURVE SMOOTH",
"551 446 OFFCURVE",
"478 511 OFFCURVE",
"378 511 CURVE SMOOTH",
"298 511 OFFCURVE",
"232 447 OFFCURVE",
"232 355 CURVE SMOOTH",
"232 263 OFFCURVE",
"296 204 OFFCURVE",
"370 204 CURVE SMOOTH",
"397 204 OFFCURVE",
"418 212 OFFCURVE",
"440 235 CURVE",
"422 235 LINE",
"417 154 OFFCURVE",
"358 120 OFFCURVE",
"307 120 CURVE SMOOTH",
"251 120 OFFCURVE",
"192 159 OFFCURVE",
"192 290 CURVE SMOOTH",
"192 670 LINE",
"202 664 OFFCURVE",
"220 660 OFFCURVE",
"234 660 CURVE SMOOTH",
"249 660 OFFCURVE",
"269 664 OFFCURVE",
"279 673 CURVE",
"278 666 OFFCURVE",
"278 661 OFFCURVE",
"278 654 CURVE SMOOTH",
"278 582 OFFCURVE",
"341 544 OFFCURVE",
"398 544 CURVE SMOOTH",
"470 544 OFFCURVE",
"527 596 OFFCURVE",
"527 678 CURVE SMOOTH",
"527 755 OFFCURVE",
"481 814 OFFCURVE",
"396 814 CURVE SMOOTH",
"370 814 OFFCURVE",
"350 811 OFFCURVE",
"326 804 CURVE SMOOTH",
"301 797 OFFCURVE",
"268 785 OFFCURVE",
"240 785 CURVE SMOOTH",
"216 785 OFFCURVE",
"195 790 OFFCURVE",
"170 800 CURVE",
"60 800 LINE",
"60 285 LINE SMOOTH",
"60 65 OFFCURVE",
"171 -15 OFFCURVE",
"306 -15 CURVE SMOOTH"
);
},
{
closed = 1;
nodes = (
"366 299 OFFCURVE",
"351 317 OFFCURVE",
"351 351 CURVE SMOOTH",
"351 383 OFFCURVE",
"366 401 OFFCURVE",
"387 401 CURVE SMOOTH",
"408 401 OFFCURVE",
"422 383 OFFCURVE",
"422 351 CURVE SMOOTH",
"422 317 OFFCURVE",
"408 299 OFFCURVE",
"387 299 CURVE SMOOTH"
);
},
{
closed = 1;
nodes = (
"379 643 OFFCURVE",
"366 657 OFFCURVE",
"366 678 CURVE SMOOTH",
"366 700 OFFCURVE",
"378 715 OFFCURVE",
"398 715 CURVE SMOOTH",
"419 715 OFFCURVE",
"432 700 OFFCURVE",
"432 678 CURVE SMOOTH",
"432 657 OFFCURVE",
"420 643 OFFCURVE",
"399 643 CURVE SMOOTH"
);
}
);
width = 576;
}
);
unicode = 110E0;
},
{
glyphname = u110E1;
lastChange = "2019-11-27 09:47:10 +0000";
layers = (
{
layerId = UUID0;
paths = (
{
closed = 1;
nodes = (
"278 0 LINE",
"278 455 LINE",
"289 459 OFFCURVE",
"304 462 OFFCURVE",
"320 462 CURVE SMOOTH",
"355 462 OFFCURVE",
"389 452 OFFCURVE",
"414 421 CURVE",
"470 470 LINE",
"442 489 OFFCURVE",
"428 527 OFFCURVE",
"428 591 CURVE SMOOTH",
"428 660 LINE",
"414 647 LINE",
"424 633 OFFCURVE",
"441 626 OFFCURVE",
"459 626 CURVE SMOOTH",
"510 626 OFFCURVE",
"550 668 OFFCURVE",
"550 720 CURVE SMOOTH",
"550 772 OFFCURVE",
"510 814 OFFCURVE",
"459 814 CURVE SMOOTH",
"396 814 OFFCURVE",
"358 768 OFFCURVE",
"358 690 CURVE SMOOTH",
"358 583 LINE SMOOTH",
"358 536 OFFCURVE",
"362 519 OFFCURVE",
"373 498 CURVE",
"379 504 LINE",
"362 520 OFFCURVE",
"336 524 OFFCURVE",
"321 524 CURVE SMOOTH",
"306 524 OFFCURVE",
"291 522 OFFCURVE",
"278 519 CURVE",
"278 800 LINE",
"208 800 LINE",
"61 600 LINE",
"138 600 LINE",
"214 712 LINE",
"217 710 LINE",
"209 689 OFFCURVE",
"208 661 OFFCURVE",
"208 629 CURVE SMOOTH",
"208 491 LINE",
"157 457 OFFCURVE",
"90 421 OFFCURVE",
"33 421 CURVE SMOOTH",
"20 421 LINE",
"20 361 LINE",
"33 361 LINE SMOOTH",
"119 361 OFFCURVE",
"190 213 OFFCURVE",
"208 132 CURVE",
"208 0 LINE"
);
},
{
closed = 1;
nodes = (
"201 309 OFFCURVE",
"144 381 OFFCURVE",
"107 393 CURVE",
"107 384 LINE",
"148 389 OFFCURVE",
"193 409 OFFCURVE",
"212 428 CURVE",
"213 427 LINE",
"210 413 OFFCURVE",
"208 401 OFFCURVE",
"208 381 CURVE SMOOTH",
"208 333 LINE SMOOTH",
"208 298 OFFCURVE",
"210 284 OFFCURVE",
"214 265 CURVE",
"212 264 LINE"
);
},
{
closed = 1;
nodes = (
"435 678 OFFCURVE",
"421 695 OFFCURVE",
"421 720 CURVE SMOOTH",
"421 745 OFFCURVE",
"435 762 OFFCURVE",
"458 762 CURVE SMOOTH",
"483 762 OFFCURVE",
"497 745 OFFCURVE",
"497 720 CURVE SMOOTH",
"497 695 OFFCURVE",
"482 678 OFFCURVE",
"458 678 CURVE SMOOTH"
);
}
);
width = 570;
},
{
layerId = "5FD33E09-9304-4171-B46D-1DFFD4F4F5B5";
paths = (
{
closed = 1;
nodes = (
"350 0 LINE",
"350 436 LINE",
"358 438 OFFCURVE",
"370 439 OFFCURVE",
"377 439 CURVE SMOOTH",
"414 439 OFFCURVE",
"451 420 OFFCURVE",
"478 387 CURVE",
"561 471 LINE",
"528 506 OFFCURVE",
"506 543 OFFCURVE",
"506 606 CURVE SMOOTH",
"506 623 LINE",
"475 601 LINE",
"487 592 OFFCURVE",
"508 583 OFFCURVE",
"532 584 CURVE SMOOTH",
"596 584 OFFCURVE",
"642 632 OFFCURVE",
"642 695 CURVE SMOOTH",
"642 760 OFFCURVE",
"600 814 OFFCURVE",
"532 814 CURVE SMOOTH",
"462 814 OFFCURVE",
"400 751 OFFCURVE",
"399 648 CURVE SMOOTH",
"399 624 LINE SMOOTH",
"399 593 OFFCURVE",
"405 567 OFFCURVE",
"416 547 CURVE",
"420 553 LINE",
"404 561 OFFCURVE",
"389 564 OFFCURVE",
"376 564 CURVE SMOOTH",
"367 564 OFFCURVE",
"356 563 OFFCURVE",
"350 562 CURVE",
"350 800 LINE",
"156 800 LINE",
"55 580 LINE",
"176 580 LINE",
"224 708 LINE",
"229 706 LINE",
"221 687 OFFCURVE",
"218 663 OFFCURVE",
"218 606 CURVE SMOOTH",
"218 524 LINE",
"177 495 OFFCURVE",
"122 478 OFFCURVE",
"34 464 CURVE SMOOTH",
"15 461 LINE",
"15 267 LINE",
"35 259 LINE SMOOTH",
"109 230 OFFCURVE",
"193 143 OFFCURVE",
"218 54 CURVE",
"218 0 LINE"
);
},
{
closed = 1;
nodes = (
"195 300 OFFCURVE",
"150 349 OFFCURVE",
"72 362 CURVE",
"73 353 LINE",
"144 366 OFFCURVE",
"203 390 OFFCURVE",
"221 412 CURVE",
"224 410 LINE",
"219 393 OFFCURVE",
"218 382 OFFCURVE",
"218 357 CURVE SMOOTH",
"218 320 LINE SMOOTH",
"218 293 OFFCURVE",
"220 278 OFFCURVE",
"224 258 CURVE",
"219 256 LINE"
);
},
{
closed = 1;
nodes = (
"508 663 OFFCURVE",
"495 677 OFFCURVE",
"495 698 CURVE SMOOTH",
"495 720 OFFCURVE",
"507 735 OFFCURVE",
"527 735 CURVE SMOOTH",
"548 735 OFFCURVE",
"561 720 OFFCURVE",
"561 698 CURVE SMOOTH",
"561 677 OFFCURVE",
"549 663 OFFCURVE",
"528 663 CURVE SMOOTH"
);
}
);
width = 657;
}
);
unicode = 110E1;
},
{
glyphname = u110E2;
lastChange = "2019-11-21 15:33:19 +0000";
layers = (
{
layerId = UUID0;
paths = (
{
closed = 1;
nodes = (
"242 -14 OFFCURVE",
"293 54 OFFCURVE",
"293 150 CURVE SMOOTH",
"293 248 OFFCURVE",
"235 344 OFFCURVE",
"136 398 CURVE",
"120 335 LINE",
"189 299 OFFCURVE",
"219 219 OFFCURVE",
"219 147 CURVE SMOOTH",
"219 106 OFFCURVE",
"208 52 OFFCURVE",
"172 52 CURVE SMOOTH",
"137 52 OFFCURVE",
"114 101 OFFCURVE",
"114 187 CURVE SMOOTH",
"114 344 OFFCURVE",
"217 590 OFFCURVE",
"319 735 CURVE",
"299 734 LINE",
"397 596 OFFCURVE",
"504 350 OFFCURVE",
"504 187 CURVE SMOOTH",
"504 101 OFFCURVE",
"481 52 OFFCURVE",
"446 52 CURVE SMOOTH",
"410 52 OFFCURVE",
"399 106 OFFCURVE",
"399 147 CURVE SMOOTH",
"399 219 OFFCURVE",
"429 299 OFFCURVE",
"498 335 CURVE",
"482 398 LINE",
"383 344 OFFCURVE",
"325 248 OFFCURVE",
"325 150 CURVE SMOOTH",
"325 54 OFFCURVE",
"376 -14 OFFCURVE",
"446 -14 CURVE SMOOTH",
"529 -14 OFFCURVE",
"578 52 OFFCURVE",
"578 185 CURVE SMOOTH",
"578 392 OFFCURVE",
"446 648 OFFCURVE",
"319 814 CURVE",
"299 814 LINE",
"172 648 OFFCURVE",
"40 392 OFFCURVE",
"40 185 CURVE SMOOTH",
"40 52 OFFCURVE",
"89 -14 OFFCURVE",
"172 -14 CURVE SMOOTH"
);
}
);
width = 618;
},
{
layerId = "5FD33E09-9304-4171-B46D-1DFFD4F4F5B5";
paths = (
{
closed = 1;
nodes = (
"282 -14 OFFCURVE",
"338 54 OFFCURVE",
"338 159 CURVE SMOOTH",
"338 258 OFFCURVE",
"274 365 OFFCURVE",
"165 425 CURVE",
"144 294 LINE",
"214 254 OFFCURVE",
"225 202 OFFCURVE",
"225 168 CURVE SMOOTH",
"225 138 OFFCURVE",
"215 112 OFFCURVE",
"194 112 CURVE SMOOTH",
"172 112 OFFCURVE",
"157 139 OFFCURVE",
"157 198 CURVE SMOOTH",
"157 323 OFFCURVE",
"262 590 OFFCURVE",
"384 735 CURVE",
"324 734 LINE",
"452 596 OFFCURVE",
"551 323 OFFCURVE",
"551 198 CURVE SMOOTH",
"551 139 OFFCURVE",
"538 112 OFFCURVE",
"516 112 CURVE SMOOTH",
"495 112 OFFCURVE",
"484 132 OFFCURVE",
"484 168 CURVE SMOOTH",
"484 200 OFFCURVE",
"497 257 OFFCURVE",
"564 294 CURVE",
"545 425 LINE",
"434 365 OFFCURVE",
"370 259 OFFCURVE",
"370 159 CURVE SMOOTH",
"370 55 OFFCURVE",
"436 -14 OFFCURVE",
"520 -14 CURVE SMOOTH",
"629 -14 OFFCURVE",
"683 58 OFFCURVE",
"683 185 CURVE SMOOTH",
"683 393 OFFCURVE",
"565 649 OFFCURVE",
"414 814 CURVE",
"294 814 LINE",
"151 646 OFFCURVE",
"25 391 OFFCURVE",
"25 198 CURVE SMOOTH",
"25 55 OFFCURVE",
"86 -14 OFFCURVE",
"189 -14 CURVE SMOOTH"
);
}
);
width = 708;
}
);
unicode = 110E2;
},
{
glyphname = u110E3;
lastChange = "2019-11-21 13:54:12 +0000";
layers = (
{
layerId = UUID0;
paths = (
{
closed = 1;
nodes = (
"320 -14 OFFCURVE",
"371 52 OFFCURVE",
"371 148 CURVE SMOOTH",
"371 260 OFFCURVE",
"297 376 OFFCURVE",
"171 421 CURVE",
"179 402 LINE",
"218 434 OFFCURVE",
"248 496 OFFCURVE",
"272 586 CURVE SMOOTH",
"299 689 OFFCURVE",
"325 755 OFFCURVE",
"365 755 CURVE SMOOTH",
"377 755 OFFCURVE",
"386 751 OFFCURVE",
"393 745 CURVE",
"428 792 LINE",
"413 806 OFFCURVE",
"392 814 OFFCURVE",
"366 814 CURVE SMOOTH",
"290 814 OFFCURVE",
"253 727 OFFCURVE",
"223 618 CURVE SMOOTH",
"201 539 OFFCURVE",
"184 489 OFFCURVE",
"164 474 CURVE",
"173 458 LINE",
"173 800 LINE",
"103 800 LINE",
"103 439 LINE",
"20 439 LINE",
"20 379 LINE",
"61 379 LINE SMOOTH",
"75 379 OFFCURVE",
"89 378 OFFCURVE",
"103 375 CURVE",
"103 153 LINE SMOOTH",
"103 35 OFFCURVE",
"164 -14 OFFCURVE",
"239 -14 CURVE SMOOTH"
);
},
{
closed = 1;
nodes = (
"200 52 OFFCURVE",
"173 91 OFFCURVE",
"173 166 CURVE SMOOTH",
"173 377 LINE",
"155 358 LINE",
"241 317 OFFCURVE",
"297 222 OFFCURVE",
"297 145 CURVE SMOOTH",
"297 84 OFFCURVE",
"275 52 OFFCURVE",
"239 52 CURVE SMOOTH"
);
}
);
width = 448;
},
{
layerId = "5FD33E09-9304-4171-B46D-1DFFD4F4F5B5";
paths = (
{
closed = 1;
nodes = (
"374 -14 OFFCURVE",
"444 66 OFFCURVE",
"444 164 CURVE SMOOTH",
"444 277 OFFCURVE",
"359 399 OFFCURVE",
"230 438 CURVE",
"255 403 LINE",
"308 446 OFFCURVE",
"337 487 OFFCURVE",
"360 580 CURVE SMOOTH",
"377 648 OFFCURVE",
"390 690 OFFCURVE",
"420 690 CURVE SMOOTH",
"432 690 OFFCURVE",
"443 684 OFFCURVE",
"455 670 CURVE",
"517 761 LINE",
"487 802 OFFCURVE",
"449 814 OFFCURVE",
"425 814 CURVE SMOOTH",
"340 814 OFFCURVE",
"287 748 OFFCURVE",
"262 631 CURVE SMOOTH",
"250 573 OFFCURVE",
"238 521 OFFCURVE",
"226 510 CURVE",
"234 494 LINE",
"234 800 LINE",
"102 802 LINE",
"102 474 LINE",
"15 470 LINE",
"15 358 LINE",
"27 358 LINE SMOOTH",
"62 358 OFFCURVE",
"84 354 OFFCURVE",
"102 348 CURVE",
"102 179 LINE SMOOTH",
"102 30 OFFCURVE",
"191 -14 OFFCURVE",
"271 -14 CURVE SMOOTH"
);
},
{
closed = 1;
nodes = (
"251 114 OFFCURVE",
"234 130 OFFCURVE",
"234 207 CURVE SMOOTH",
"234 333 LINE",
"216 309 LINE",
"273 281 OFFCURVE",
"310 226 OFFCURVE",
"309 170 CURVE SMOOTH",
"309 138 OFFCURVE",
"291 114 OFFCURVE",
"271 114 CURVE SMOOTH"
);
}
);
width = 532;
}
);
unicode = 110E3;
},
{
glyphname = u110E4;
lastChange = "2019-11-27 09:52:33 +0000";
layers = (
{
layerId = UUID0;
paths = (
{
closed = 1;
nodes = (
"357 -14 OFFCURVE",
"436 45 OFFCURVE",
"436 165 CURVE SMOOTH",
"436 251 OFFCURVE",
"387 298 OFFCURVE",
"323 298 CURVE SMOOTH",
"259 298 OFFCURVE",
"215 247 OFFCURVE",
"215 178 CURVE SMOOTH",
"215 105 OFFCURVE",
"267 62 OFFCURVE",
"324 62 CURVE",
"315 56 OFFCURVE",
"302 52 OFFCURVE",
"274 52 CURVE SMOOTH",
"218 52 OFFCURVE",
"141 92 OFFCURVE",
"141 197 CURVE SMOOTH",
"141 304 OFFCURVE",
"223 384 OFFCURVE",
"329 463 CURVE",
"297 514 LINE",
"270 493 OFFCURVE",
"239 471 OFFCURVE",
"217 471 CURVE SMOOTH",
"195 471 OFFCURVE",
"176 489 OFFCURVE",
"176 517 CURVE SMOOTH",
"176 567 OFFCURVE",
"238 651 OFFCURVE",
"349 751 CURVE",
"349 800 LINE",
"40 800 LINE",
"40 630 LINE",
"110 630 LINE",
"110 740 LINE",
"283 740 LINE",
"272 757 LINE",
"174 666 OFFCURVE",
"102 570 OFFCURVE",
"102 503 CURVE SMOOTH",
"102 455 OFFCURVE",
"131 414 OFFCURVE",
"198 414 CURVE",
"197 426 LINE",
"124 371 OFFCURVE",
"67 285 OFFCURVE",
"67 192 CURVE SMOOTH",
"67 69 OFFCURVE",
"158 -14 OFFCURVE",
"268 -14 CURVE SMOOTH"
);
},
{
closed = 1;
nodes = (
"293 116 OFFCURVE",
"273 142 OFFCURVE",
"273 178 CURVE SMOOTH",
"273 214 OFFCURVE",
"293 240 OFFCURVE",
"323 240 CURVE SMOOTH",
"352 240 OFFCURVE",
"372 214 OFFCURVE",
"372 178 CURVE SMOOTH",
"372 142 OFFCURVE",
"352 116 OFFCURVE",
"323 116 CURVE SMOOTH"
);
}
);
width = 476;
},
{
layerId = "5FD33E09-9304-4171-B46D-1DFFD4F4F5B5";
paths = (
{
closed = 1;
nodes = (
"440 -15 OFFCURVE",
"520 73 OFFCURVE",
"520 167 CURVE SMOOTH",
"520 265 OFFCURVE",
"457 315 OFFCURVE",
"383 315 CURVE SMOOTH",
"313 315 OFFCURVE",
"256 255 OFFCURVE",
"256 183 CURVE SMOOTH",
"256 146 OFFCURVE",
"274 117 OFFCURVE",
"289 109 CURVE",
"288 109 OFFCURVE",
"286 109 OFFCURVE",
"284 109 CURVE SMOOTH",
"245 109 OFFCURVE",
"195 146 OFFCURVE",
"195 221 CURVE SMOOTH",
"195 294 OFFCURVE",
"253 362 OFFCURVE",
"418 421 CURVE",
"380 515 LINE",
"354 506 OFFCURVE",
"346 503 OFFCURVE",
"338 503 CURVE SMOOTH",
"321 503 OFFCURVE",
"311 515 OFFCURVE",
"311 531 CURVE SMOOTH",
"311 560 OFFCURVE",
"331 598 OFFCURVE",
"424 691 CURVE",
"424 800 LINE",
"35 800 LINE",
"35 600 LINE",
"150 600 LINE",
"150 675 LINE",
"285 675 LINE",
"271 690 LINE",
"224 629 OFFCURVE",
"172 565 OFFCURVE",
"172 512 CURVE SMOOTH",
"172 460 OFFCURVE",
"202 442 OFFCURVE",
"234 436 CURVE",
"232 453 LINE",
"105 403 OFFCURVE",
"60 307 OFFCURVE",
"60 213 CURVE SMOOTH",
"60 72 OFFCURVE",
"156 -15 OFFCURVE",
"299 -15 CURVE SMOOTH"
);
},
{
closed = 1;
nodes = (
"367 131 OFFCURVE",
"352 149 OFFCURVE",
"352 175 CURVE SMOOTH",
"352 200 OFFCURVE",
"367 218 OFFCURVE",
"388 218 CURVE SMOOTH",
"409 218 OFFCURVE",
"423 200 OFFCURVE",
"423 175 CURVE SMOOTH",
"423 149 OFFCURVE",
"409 131 OFFCURVE",
"388 131 CURVE SMOOTH"
);
}
);
width = 555;
},
{
associatedMasterId = "5FD33E09-9304-4171-B46D-1DFFD4F4F5B5";
layerId = "2A3B73BE-E76D-4821-8448-BD4CF07C03D1";
name = "Nov 21 19, 11:33";
paths = (
{
closed = 1;
nodes = (
"450 -15 OFFCURVE",
"541 97 OFFCURVE",
"541 228 CURVE SMOOTH",
"541 338 OFFCURVE",
"470 406 OFFCURVE",
"387 406 CURVE SMOOTH",
"302 406 OFFCURVE",
"240 343 OFFCURVE",
"240 259 CURVE SMOOTH",
"240 178 OFFCURVE",
"296 127 OFFCURVE",
"350 127 CURVE SMOOTH",
"364 127 OFFCURVE",
"375 129 OFFCURVE",
"380 131 CURVE",
"382 125 LINE",
"364 113 OFFCURVE",
"341 109 OFFCURVE",
"322 109 CURVE SMOOTH",
"268 109 OFFCURVE",
"182 147 OFFCURVE",
"182 263 CURVE SMOOTH",
"182 341 OFFCURVE",
"221 402 OFFCURVE",
"408 475 CURVE",
"368 562 LINE",
"330 544 OFFCURVE",
"321 542 OFFCURVE",
"313 542 CURVE SMOOTH",
"297 542 OFFCURVE",
"287 552 OFFCURVE",
"287 567 CURVE SMOOTH",
"287 586 OFFCURVE",
"309 616 OFFCURVE",
"414 691 CURVE",
"414 800 LINE",
"25 800 LINE",
"25 600 LINE",
"145 600 LINE",
"145 675 LINE",
"275 675 LINE",
"261 690 LINE",
"204 640 OFFCURVE",
"140 585 OFFCURVE",
"140 525 CURVE SMOOTH",
"140 479 OFFCURVE",
"176 455 OFFCURVE",
"208 453 CURVE",
"201 478 LINE",
"77 408 OFFCURVE",
"48 311 OFFCURVE",
"48 241 CURVE SMOOTH",
"48 82 OFFCURVE",
"162 -15 OFFCURVE",
"301 -15 CURVE SMOOTH"
);
},
{
closed = 1;
nodes = (
"365 212 OFFCURVE",
"350 230 OFFCURVE",
"350 256 CURVE SMOOTH",
"350 281 OFFCURVE",
"365 299 OFFCURVE",
"386 299 CURVE SMOOTH",
"407 299 OFFCURVE",
"421 281 OFFCURVE",
"421 256 CURVE SMOOTH",
"421 230 OFFCURVE",
"407 212 OFFCURVE",
"386 212 CURVE SMOOTH"
);
}
);
width = 566;
}
);
unicode = 110E4;
},
{
glyphname = u110E5;
lastChange = "2019-11-21 13:54:42 +0000";
layers = (
{
layerId = UUID0;
paths = (
{
closed = 1;
nodes = (
"441 -14 OFFCURVE",
"476 84 OFFCURVE",
"476 249 CURVE SMOOTH",
"476 800 LINE",
"406 800 LINE",
"406 250 LINE SMOOTH",
"406 110 OFFCURVE",
"386 52 OFFCURVE",
"309 52 CURVE SMOOTH",
"230 52 OFFCURVE",
"208 110 OFFCURVE",
"208 250 CURVE SMOOTH",
"208 800 LINE",
"10 800 LINE",
"10 740 LINE",
"138 740 LINE",
"138 249 LINE SMOOTH",
"138 83 OFFCURVE",
"173 -14 OFFCURVE",
"306 -14 CURVE SMOOTH"
);
}
);
width = 556;
},
{
layerId = "5FD33E09-9304-4171-B46D-1DFFD4F4F5B5";
paths = (
{
closed = 1;
nodes = (
"491 -14 OFFCURVE",
"546 83 OFFCURVE",
"546 249 CURVE SMOOTH",
"546 800 LINE",
"414 800 LINE",
"414 260 LINE SMOOTH",
"414 159 OFFCURVE",
"390 111 OFFCURVE",
"338 111 CURVE SMOOTH",
"279 111 OFFCURVE",
"258 160 OFFCURVE",
"258 260 CURVE SMOOTH",
"258 800 LINE",
"0 800 LINE",
"0 675 LINE",
"126 675 LINE",
"126 249 LINE SMOOTH",
"126 84 OFFCURVE",
"180 -14 OFFCURVE",
"335 -14 CURVE SMOOTH"
);
}
);
width = 616;
}
);
unicode = 110E5;
},
{
glyphname = u110E6;
lastChange = "2019-11-27 09:59:59 +0000";
layers = (
{
layerId = UUID0;
paths = (
{
closed = 1;
nodes = (
"400 0 LINE",
"400 60 LINE",
"126 60 LINE",
"321 363 LINE SMOOTH",
"372 442 OFFCURVE",
"414 534 OFFCURVE",
"414 608 CURVE SMOOTH",
"414 741 OFFCURVE",
"335 814 OFFCURVE",
"222 814 CURVE SMOOTH",
"112 814 OFFCURVE",
"40 742 OFFCURVE",
"40 635 CURVE SMOOTH",
"40 548 OFFCURVE",
"89 502 OFFCURVE",
"153 502 CURVE SMOOTH",
"217 502 OFFCURVE",
"261 553 OFFCURVE",
"261 622 CURVE SMOOTH",
"261 697 OFFCURVE",
"215 737 OFFCURVE",
"151 737 CURVE",
"161 744 OFFCURVE",
"182 752 OFFCURVE",
"213 752 CURVE SMOOTH",
"259 752 OFFCURVE",
"340 732 OFFCURVE",
"340 609 CURVE SMOOTH",
"340 526 OFFCURVE",
"306 467 OFFCURVE",
"253 382 CURVE SMOOTH",
"44 49 LINE",
"44 0 LINE"
);
},
{
closed = 1;
nodes = (
"124 560 OFFCURVE",
"104 586 OFFCURVE",
"104 622 CURVE SMOOTH",
"104 658 OFFCURVE",
"124 684 OFFCURVE",
"153 684 CURVE SMOOTH",
"183 684 OFFCURVE",
"203 658 OFFCURVE",
"203 622 CURVE SMOOTH",
"203 586 OFFCURVE",
"183 560 OFFCURVE",
"153 560 CURVE SMOOTH"
);
}
);
width = 454;
},
{
layerId = "5FD33E09-9304-4171-B46D-1DFFD4F4F5B5";
paths = (
{
closed = 1;
nodes = (
"494 0 LINE",
"494 125 LINE",
"203 125 LINE",
"356 307 LINE SMOOTH",
"429 393 OFFCURVE",
"498 477 OFFCURVE",
"498 575 CURVE SMOOTH",
"498 719 OFFCURVE",
"382 815 OFFCURVE",
"255 815 CURVE SMOOTH",
"126 815 OFFCURVE",
"35 725 OFFCURVE",
"35 630 CURVE SMOOTH",
"35 534 OFFCURVE",
"96 484 OFFCURVE",
"171 484 CURVE SMOOTH",
"245 484 OFFCURVE",
"294 539 OFFCURVE",
"294 605 CURVE SMOOTH",
"294 655 OFFCURVE",
"268 688 OFFCURVE",
"240 700 CURVE",
"247 700 OFFCURVE",
"248 700 OFFCURVE",
"249 700 CURVE SMOOTH",
"278 700 OFFCURVE",
"367 665 OFFCURVE",
"366 562 CURVE SMOOTH",
"366 491 OFFCURVE",
"319 448 OFFCURVE",
"237 349 CURVE SMOOTH",
"43 114 LINE",
"43 0 LINE"
);
},
{
closed = 1;
nodes = (
"146 582 OFFCURVE",
"132 600 OFFCURVE",
"132 625 CURVE SMOOTH",
"132 651 OFFCURVE",
"146 669 OFFCURVE",
"167 669 CURVE SMOOTH",
"188 669 OFFCURVE",
"203 651 OFFCURVE",
"203 625 CURVE SMOOTH",
"203 600 OFFCURVE",
"188 582 OFFCURVE",
"167 582 CURVE SMOOTH"
);
}
);
width = 533;
}
);
unicode = 110E6;
},
{
glyphname = u110E7;
lastChange = "2019-11-21 14:00:37 +0000";
layers = (
{
layerId = UUID0;
paths = (
{
closed = 1;
nodes = (
"150 0 LINE",
"150 65 LINE SMOOTH",
"150 110 OFFCURVE",
"184 135 OFFCURVE",
"218 135 CURVE SMOOTH",
"248 135 OFFCURVE",
"273 125 OFFCURVE",
"278 100 CURVE",
"348 100 LINE",
"329 203 OFFCURVE",
"314 327 OFFCURVE",
"314 436 CURVE SMOOTH",
"314 541 OFFCURVE",
"318 609 OFFCURVE",
"329 659 CURVE",
"321 655 LINE",
"337 635 OFFCURVE",
"359 626 OFFCURVE",
"386 626 CURVE SMOOTH",
"437 626 OFFCURVE",
"477 668 OFFCURVE",
"477 720 CURVE SMOOTH",
"477 772 OFFCURVE",
"437 814 OFFCURVE",
"386 814 CURVE SMOOTH",
"306 814 OFFCURVE",
"244 734 OFFCURVE",
"244 436 CURVE SMOOTH",
"244 320 OFFCURVE",
"256 233 OFFCURVE",
"267 177 CURVE",
"274 178 LINE",
"260 195 OFFCURVE",
"240 201 OFFCURVE",
"219 201 CURVE SMOOTH",
"199 201 OFFCURVE",
"174 195 OFFCURVE",
"150 178 CURVE",
"150 800 LINE",
"80 800 LINE",
"80 0 LINE"
);
},
{
closed = 1;
nodes = (
"362 678 OFFCURVE",
"348 695 OFFCURVE",
"348 720 CURVE SMOOTH",
"348 745 OFFCURVE",
"362 762 OFFCURVE",
"385 762 CURVE SMOOTH",
"410 762 OFFCURVE",
"424 745 OFFCURVE",
"424 720 CURVE SMOOTH",
"424 695 OFFCURVE",
"409 678 OFFCURVE",
"385 678 CURVE SMOOTH"
);
}
);
width = 497;
},
{
layerId = "5FD33E09-9304-4171-B46D-1DFFD4F4F5B5";
paths = (
{
closed = 1;
nodes = (
"192 0 LINE",
"192 39 LINE SMOOTH",
"192 93 OFFCURVE",
"228 113 OFFCURVE",
"257 113 CURVE SMOOTH",
"282 113 OFFCURVE",
"310 101 OFFCURVE",
"316 74 CURVE",
"453 74 LINE",
"430 196 OFFCURVE",
"412 331 OFFCURVE",
"412 436 CURVE SMOOTH",
"412 495 OFFCURVE",
"414 561 OFFCURVE",
"426 609 CURVE",
"413 603 LINE",
"426 592 OFFCURVE",
"446 584 OFFCURVE",
"474 584 CURVE SMOOTH",
"522 584 OFFCURVE",
"579 622 OFFCURVE",
"579 696 CURVE SMOOTH",
"579 763 OFFCURVE",
"527 814 OFFCURVE",
"467 814 CURVE SMOOTH",
"383 814 OFFCURVE",
"280 735 OFFCURVE",
"280 445 CURVE SMOOTH",
"280 366 OFFCURVE",
"290 275 OFFCURVE",
"304 217 CURVE",
"311 218 LINE",
"295 232 OFFCURVE",
"277 239 OFFCURVE",
"256 239 CURVE SMOOTH",
"236 239 OFFCURVE",
"215 234 OFFCURVE",
"192 218 CURVE",
"192 800 LINE",
"60 800 LINE",
"60 0 LINE"
);
},
{
closed = 1;
nodes = (
"445 663 OFFCURVE",
"432 677 OFFCURVE",
"432 698 CURVE SMOOTH",
"432 720 OFFCURVE",
"444 735 OFFCURVE",
"464 735 CURVE SMOOTH",
"485 735 OFFCURVE",
"498 720 OFFCURVE",
"498 698 CURVE SMOOTH",
"498 677 OFFCURVE",
"486 663 OFFCURVE",
"465 663 CURVE SMOOTH"
);
}
);
width = 622;
},
{
associatedMasterId = "5FD33E09-9304-4171-B46D-1DFFD4F4F5B5";
layerId = "5B137018-494C-4909-8DF9-71E628494FD1";
name = "Nov 21 19, 12:19";
paths = (
{
closed = 1;
nodes = (
"192 0 LINE",
"192 39 LINE SMOOTH",
"192 93 OFFCURVE",
"230 113 OFFCURVE",
"270 113 CURVE SMOOTH",
"296 113 OFFCURVE",
"324 101 OFFCURVE",
"330 74 CURVE",
"467 74 LINE",
"444 196 OFFCURVE",
"426 331 OFFCURVE",
"426 436 CURVE SMOOTH",
"426 484 OFFCURVE",
"428 533 OFFCURVE",
"440 577 CURVE",
"427 571 LINE",
"443 557 OFFCURVE",
"467 547 OFFCURVE",
"499 547 CURVE SMOOTH",
"564 547 OFFCURVE",
"617 594 OFFCURVE",
"617 680 CURVE SMOOTH",
"617 756 OFFCURVE",
"572 814 OFFCURVE",
"489 814 CURVE SMOOTH",
"398 814 OFFCURVE",
"294 735 OFFCURVE",
"294 445 CURVE SMOOTH",
"294 366 OFFCURVE",
"304 275 OFFCURVE",
"318 217 CURVE",
"325 218 LINE",
"309 232 OFFCURVE",
"285 239 OFFCURVE",
"262 239 CURVE SMOOTH",
"239 239 OFFCURVE",
"216 234 OFFCURVE",
"192 218 CURVE",
"192 800 LINE",
"60 800 LINE",
"60 0 LINE"
);
},
{
closed = 1;
nodes = (
"469 643 OFFCURVE",
"456 657 OFFCURVE",
"456 678 CURVE SMOOTH",
"456 700 OFFCURVE",
"468 715 OFFCURVE",
"488 715 CURVE SMOOTH",
"509 715 OFFCURVE",
"522 700 OFFCURVE",
"522 678 CURVE SMOOTH",
"522 657 OFFCURVE",
"510 643 OFFCURVE",
"489 643 CURVE SMOOTH"
);
}
);
width = 622;
}
);
unicode = 110E7;
},
{
glyphname = u110E8;
lastChange = "2019-11-21 14:00:16 +0000";
layers = (
{
layerId = UUID0;
paths = (
{
closed = 1;
nodes = (
"274 -14 OFFCURVE",
"302 -6 OFFCURVE",
"326 11 CURVE",
"292 70 LINE",
"280 59 OFFCURVE",
"266 52 OFFCURVE",
"247 52 CURVE SMOOTH",
"171 52 OFFCURVE",
"150 118 OFFCURVE",
"150 258 CURVE SMOOTH",
"150 557 LINE",
"136 550 LINE",
"148 527 OFFCURVE",
"183 510 OFFCURVE",
"214 510 CURVE SMOOTH",
"289 510 OFFCURVE",
"340 573 OFFCURVE",
"340 660 CURVE SMOOTH",
"340 747 OFFCURVE",
"294 814 OFFCURVE",
"214 814 CURVE SMOOTH",
"142 814 OFFCURVE",
"80 761 OFFCURVE",
"80 635 CURVE SMOOTH",
"80 249 LINE SMOOTH",
"80 83 OFFCURVE",
"117 -14 OFFCURVE",
"242 -14 CURVE SMOOTH"
);
},
{
closed = 1;
nodes = (
"176 572 OFFCURVE",
"150 610 OFFCURVE",
"150 663 CURVE SMOOTH",
"150 715 OFFCURVE",
"176 752 OFFCURVE",
"215 752 CURVE SMOOTH",
"252 752 OFFCURVE",
"272 715 OFFCURVE",
"272 663 CURVE SMOOTH",
"272 610 OFFCURVE",
"252 572 OFFCURVE",
"215 572 CURVE SMOOTH"
);
}
);
width = 380;
},
{
layerId = "5FD33E09-9304-4171-B46D-1DFFD4F4F5B5";
paths = (
{
closed = 1;
nodes = (
"292 -14 OFFCURVE",
"332 5 OFFCURVE",
"363 31 CURVE",
"313 136 LINE",
"288 116 OFFCURVE",
"274 111 OFFCURVE",
"258 111 CURVE SMOOTH",
"230 111 OFFCURVE",
"202 130 OFFCURVE",
"202 202 CURVE SMOOTH",
"202 573 LINE",
"157 559 LINE",
"183 532 OFFCURVE",
"209 520 OFFCURVE",
"244 520 CURVE SMOOTH",
"301 520 OFFCURVE",
"363 565 OFFCURVE",
"363 661 CURVE SMOOTH",
"363 741 OFFCURVE",
"323 814 OFFCURVE",
"228 814 CURVE SMOOTH",
"135 814 OFFCURVE",
"70 736 OFFCURVE",
"70 574 CURVE SMOOTH",
"70 201 LINE SMOOTH",
"70 53 OFFCURVE",
"130 -14 OFFCURVE",
"234 -14 CURVE SMOOTH"
);
},
{
closed = 1;
nodes = (
"210 615 OFFCURVE",
"196 633 OFFCURVE",
"196 666 CURVE SMOOTH",
"196 696 OFFCURVE",
"210 717 OFFCURVE",
"231 717 CURVE SMOOTH",
"253 717 OFFCURVE",
"267 696 OFFCURVE",
"267 666 CURVE SMOOTH",
"267 633 OFFCURVE",
"253 615 OFFCURVE",
"231 615 CURVE SMOOTH"
);
}
);
width = 398;
}
);
unicode = 110E8;
},
{
glyphname = u110F0;
lastChange = "2019-11-11 13:26:23 +0000";
layers = (
{
layerId = UUID0;
paths = (
{
closed = 1;
nodes = (
"383 -14 OFFCURVE",
"418 84 OFFCURVE",
"418 249 CURVE SMOOTH",
"418 551 LINE SMOOTH",
"418 716 OFFCURVE",
"383 814 OFFCURVE",
"248 814 CURVE SMOOTH",
"115 814 OFFCURVE",
"80 717 OFFCURVE",
"80 551 CURVE SMOOTH",
"80 249 LINE SMOOTH",
"80 83 OFFCURVE",
"115 -14 OFFCURVE",
"248 -14 CURVE SMOOTH"
);
},
{
closed = 1;
nodes = (
"172 52 OFFCURVE",
"150 110 OFFCURVE",
"150 250 CURVE SMOOTH",
"150 550 LINE SMOOTH",
"150 690 OFFCURVE",
"172 748 OFFCURVE",
"251 748 CURVE SMOOTH",
"328 748 OFFCURVE",
"348 690 OFFCURVE",
"348 550 CURVE SMOOTH",
"348 250 LINE SMOOTH",
"348 110 OFFCURVE",
"328 52 OFFCURVE",
"251 52 CURVE SMOOTH"
);
}
);
width = 498;
},
{
layerId = "5FD33E09-9304-4171-B46D-1DFFD4F4F5B5";
paths = (
{
closed = 1;
nodes = (
"415 -14 OFFCURVE",
"460 84 OFFCURVE",
"460 229 CURVE SMOOTH",
"460 571 LINE SMOOTH",
"460 719 OFFCURVE",
"411 814 OFFCURVE",
"259 814 CURVE SMOOTH",
"119 814 OFFCURVE",
"60 710 OFFCURVE",
"60 571 CURVE SMOOTH",
"60 229 LINE SMOOTH",
"60 90 OFFCURVE",
"106 -14 OFFCURVE",
"259 -14 CURVE SMOOTH"
);
},
{
closed = 1;
nodes = (
"207 111 OFFCURVE",
"192 160 OFFCURVE",
"192 240 CURVE SMOOTH",
"192 560 LINE SMOOTH",
"192 640 OFFCURVE",
"207 689 OFFCURVE",
"262 689 CURVE SMOOTH",
"315 689 OFFCURVE",
"328 640 OFFCURVE",
"328 560 CURVE SMOOTH",
"328 240 LINE SMOOTH",
"328 160 OFFCURVE",
"315 111 OFFCURVE",
"262 111 CURVE SMOOTH"
);
}
);
width = 520;
}
);
unicode = 110F0;
},
{
glyphname = u110F1;
lastChange = "2019-11-21 14:09:36 +0000";
layers = (
{
layerId = UUID0;
paths = (
{
closed = 1;
nodes = (
"173 0 LINE",
"173 667 LINE SMOOTH",
"173 740 OFFCURVE",
"194 756 OFFCURVE",
"221 756 CURVE SMOOTH",
"247 756 OFFCURVE",
"267 734 OFFCURVE",
"267 693 CURVE SMOOTH",
"267 629 OFFCURVE",
"195 596 OFFCURVE",
"40 589 CURVE",
"40 529 LINE",
"229 534 OFFCURVE",
"326 588 OFFCURVE",
"326 693 CURVE SMOOTH",
"326 765 OFFCURVE",
"278 814 OFFCURVE",
"218 814 CURVE SMOOTH",
"163 814 OFFCURVE",
"103 780 OFFCURVE",
"103 666 CURVE SMOOTH",
"103 0 LINE"
);
}
);
width = 366;
},
{
layerId = "5FD33E09-9304-4171-B46D-1DFFD4F4F5B5";
paths = (
{
closed = 1;
nodes = (
"228 0 LINE",
"228 617 LINE SMOOTH",
"228 680 OFFCURVE",
"245 699 OFFCURVE",
"268 699 CURVE SMOOTH",
"283 699 OFFCURVE",
"302 686 OFFCURVE",
"302 662 CURVE SMOOTH",
"302 626 OFFCURVE",
"250 583 OFFCURVE",
"35 572 CURVE",
"35 457 LINE",
"320 467 OFFCURVE",
"416 556 OFFCURVE",
"416 668 CURVE SMOOTH",
"416 729 OFFCURVE",
"370 814 OFFCURVE",
"271 814 CURVE SMOOTH",
"182 814 OFFCURVE",
"96 751 OFFCURVE",
"96 617 CURVE SMOOTH",
"96 0 LINE"
);
}
);
width = 451;
}
);
unicode = 110F1;
},
{
glyphname = u110F2;
lastChange = "2019-11-21 14:10:24 +0000";
layers = (
{
layerId = UUID0;
paths = (
{
closed = 1;
nodes = (
"263 0 LINE",
"263 666 LINE SMOOTH",
"263 780 OFFCURVE",
"203 814 OFFCURVE",
"148 814 CURVE SMOOTH",
"88 814 OFFCURVE",
"40 765 OFFCURVE",
"40 693 CURVE SMOOTH",
"40 588 OFFCURVE",
"137 534 OFFCURVE",
"326 529 CURVE",
"326 589 LINE",
"171 596 OFFCURVE",
"99 629 OFFCURVE",
"99 693 CURVE SMOOTH",
"99 734 OFFCURVE",
"119 756 OFFCURVE",
"145 756 CURVE SMOOTH",
"172 756 OFFCURVE",
"193 740 OFFCURVE",
"193 667 CURVE SMOOTH",
"193 0 LINE"
);
}
);
width = 366;
},
{
layerId = "5FD33E09-9304-4171-B46D-1DFFD4F4F5B5";
paths = (
{
closed = 1;
nodes = (
"355 0 LINE",
"355 617 LINE SMOOTH",
"355 751 OFFCURVE",
"269 814 OFFCURVE",
"180 814 CURVE SMOOTH",
"81 814 OFFCURVE",
"35 729 OFFCURVE",
"35 668 CURVE SMOOTH",
"35 556 OFFCURVE",
"131 467 OFFCURVE",
"416 457 CURVE",
"416 572 LINE",
"201 583 OFFCURVE",
"149 626 OFFCURVE",
"149 662 CURVE SMOOTH",
"149 686 OFFCURVE",
"168 699 OFFCURVE",
"183 699 CURVE SMOOTH",
"206 699 OFFCURVE",
"223 680 OFFCURVE",
"223 617 CURVE SMOOTH",
"223 0 LINE"
);
}
);
width = 451;
},
{
associatedMasterId = "5FD33E09-9304-4171-B46D-1DFFD4F4F5B5";
layerId = "61602290-CB84-4E36-9BEB-68DA172D0511";
name = "Nov 21 19, 14:09";
paths = (
{
closed = 1;
nodes = (
"365 0 LINE",
"365 597 LINE SMOOTH",
"365 745 OFFCURVE",
"286 814 OFFCURVE",
"190 814 CURVE SMOOTH",
"77 814 OFFCURVE",
"25 717 OFFCURVE",
"25 646 CURVE SMOOTH",
"25 525 OFFCURVE",
"126 428 OFFCURVE",
"426 417 CURVE",
"426 552 LINE",
"211 563 OFFCURVE",
"159 606 OFFCURVE",
"159 642 CURVE SMOOTH",
"159 666 OFFCURVE",
"178 679 OFFCURVE",
"193 679 CURVE SMOOTH",
"216 679 OFFCURVE",
"233 660 OFFCURVE",
"233 597 CURVE SMOOTH",
"233 0 LINE"
);
}
);
width = 451;
}
);
unicode = 110F2;
},
{
glyphname = u110F3;
lastChange = "2019-11-21 13:05:56 +0000";
layers = (
{
layerId = UUID0;
paths = (
{
closed = 1;
nodes = (
"244 -14 OFFCURVE",
"267 71 OFFCURVE",
"267 146 CURVE SMOOTH",
"267 654 LINE SMOOTH",
"267 729 OFFCURVE",
"244 814 OFFCURVE",
"148 814 CURVE SMOOTH",
"84 814 OFFCURVE",
"40 763 OFFCURVE",
"40 694 CURVE SMOOTH",
"40 613 OFFCURVE",
"94 574 OFFCURVE",
"143 574 CURVE SMOOTH",
"171 574 OFFCURVE",
"197 588 OFFCURVE",
"210 610 CURVE",
"204 614 LINE",
"200 593 OFFCURVE",
"197 561 OFFCURVE",
"197 510 CURVE SMOOTH",
"197 290 LINE SMOOTH",
"197 239 OFFCURVE",
"200 207 OFFCURVE",
"204 186 CURVE",
"210 190 LINE",
"197 212 OFFCURVE",
"171 226 OFFCURVE",
"143 226 CURVE SMOOTH",
"84 226 OFFCURVE",
"40 175 OFFCURVE",
"40 106 CURVE SMOOTH",
"40 37 OFFCURVE",
"84 -14 OFFCURVE",
"148 -14 CURVE SMOOTH"
);
},
{
closed = 1;
nodes = (
"118 44 OFFCURVE",
"98 70 OFFCURVE",
"98 106 CURVE SMOOTH",
"98 142 OFFCURVE",
"118 168 OFFCURVE",
"148 168 CURVE SMOOTH",
"177 168 OFFCURVE",
"197 142 OFFCURVE",
"197 106 CURVE SMOOTH",
"197 70 OFFCURVE",
"177 44 OFFCURVE",
"148 44 CURVE SMOOTH"
);
},
{
closed = 1;
nodes = (
"118 632 OFFCURVE",
"98 658 OFFCURVE",
"98 694 CURVE SMOOTH",
"98 730 OFFCURVE",
"118 756 OFFCURVE",
"148 756 CURVE SMOOTH",
"177 756 OFFCURVE",
"197 730 OFFCURVE",
"197 694 CURVE SMOOTH",
"197 658 OFFCURVE",
"177 632 OFFCURVE",
"148 632 CURVE SMOOTH"
);
}
);
width = 347;
},
{
layerId = "5FD33E09-9304-4171-B46D-1DFFD4F4F5B5";
paths = (
{
closed = 1;
nodes = (
"261 -14 OFFCURVE",
"320 57 OFFCURVE",
"320 231 CURVE SMOOTH",
"320 582 LINE SMOOTH",
"320 745 OFFCURVE",
"260 814 OFFCURVE",
"170 814 CURVE SMOOTH",
"87 814 OFFCURVE",
"35 751 OFFCURVE",
"35 665 CURVE SMOOTH",
"35 576 OFFCURVE",
"102 532 OFFCURVE",
"161 532 CURVE SMOOTH",
"187 532 OFFCURVE",
"215 541 OFFCURVE",
"242 571 CURVE",
"204 582 LINE",
"195 556 OFFCURVE",
"188 528 OFFCURVE",
"188 412 CURVE SMOOTH",
"188 388 LINE SMOOTH",
"188 275 OFFCURVE",
"194 249 OFFCURVE",
"202 223 CURVE",
"242 235 LINE",
"216 259 OFFCURVE",
"192 270 OFFCURVE",
"165 270 CURVE SMOOTH",
"98 270 OFFCURVE",
"35 212 OFFCURVE",
"35 124 CURVE SMOOTH",
"35 38 OFFCURVE",
"99 -14 OFFCURVE",
"171 -14 CURVE SMOOTH"
);
},
{
closed = 1;
nodes = (
"147 82 OFFCURVE",
"132 100 OFFCURVE",
"132 128 CURVE SMOOTH",
"132 155 OFFCURVE",
"147 173 OFFCURVE",
"168 173 CURVE SMOOTH",
"188 173 OFFCURVE",
"203 155 OFFCURVE",
"203 128 CURVE SMOOTH",
"203 100 OFFCURVE",
"188 82 OFFCURVE",
"168 82 CURVE SMOOTH"
);
},
{
closed = 1;
nodes = (
"146 627 OFFCURVE",
"132 645 OFFCURVE",
"132 672 CURVE SMOOTH",
"132 699 OFFCURVE",
"146 717 OFFCURVE",
"168 717 CURVE SMOOTH",
"189 717 OFFCURVE",
"203 699 OFFCURVE",
"203 672 CURVE SMOOTH",
"203 645 OFFCURVE",
"189 627 OFFCURVE",
"168 627 CURVE SMOOTH"
);
}
);
width = 390;
}
);
unicode = 110F3;
},
{
glyphname = u110F4;
lastChange = "2019-11-26 14:33:20 +0000";
layers = (
{
layerId = UUID0;
paths = (
{
closed = 1;
nodes = (
"290 -14 OFFCURVE",
"313 71 OFFCURVE",
"313 146 CURVE SMOOTH",
"313 800 LINE",
"243 800 LINE",
"243 320 LINE SMOOTH",
"243 259 OFFCURVE",
"247 217 OFFCURVE",
"254 186 CURVE",
"260 194 LINE",
"243 216 OFFCURVE",
"216 226 OFFCURVE",
"190 226 CURVE SMOOTH",
"135 226 OFFCURVE",
"86 179 OFFCURVE",
"86 115 CURVE SMOOTH",
"86 84 OFFCURVE",
"94 61 OFFCURVE",
"107 45 CURVE",
"109 57 LINE",
"76 68 OFFCURVE",
"41 85 OFFCURVE",
"10 108 CURVE",
"10 36 LINE",
"71 3 OFFCURVE",
"129 -14 OFFCURVE",
"194 -14 CURVE SMOOTH"
);
},
{
closed = 1;
nodes = (
"164 44 OFFCURVE",
"144 70 OFFCURVE",
"144 106 CURVE SMOOTH",
"144 142 OFFCURVE",
"164 168 OFFCURVE",
"194 168 CURVE SMOOTH",
"223 168 OFFCURVE",
"243 142 OFFCURVE",
"243 106 CURVE SMOOTH",
"243 70 OFFCURVE",
"223 44 OFFCURVE",
"194 44 CURVE SMOOTH"
);
}
);
width = 393;
},
{
layerId = "5FD33E09-9304-4171-B46D-1DFFD4F4F5B5";
paths = (
{
closed = 1;
nodes = (
"331 -14 OFFCURVE",
"370 66 OFFCURVE",
"370 190 CURVE SMOOTH",
"370 800 LINE",
"238 800 LINE",
"238 381 LINE SMOOTH",
"238 320 OFFCURVE",
"242 289 OFFCURVE",
"249 241 CURVE",
"255 252 LINE",
"248 264 OFFCURVE",
"227 270 OFFCURVE",
"211 270 CURVE SMOOTH",
"140 270 OFFCURVE",
"91 205 OFFCURVE",
"91 139 CURVE SMOOTH",
"91 115 OFFCURVE",
"102 101 OFFCURVE",
"109 94 CURVE",
"116 118 LINE",
"98 124 OFFCURVE",
"50 144 OFFCURVE",
"5 169 CURVE",
"5 33 LINE",
"64 5 OFFCURVE",
"138 -14 OFFCURVE",
"196 -14 CURVE SMOOTH"
);
},
{
closed = 1;
nodes = (
"201 83 OFFCURVE",
"187 102 OFFCURVE",
"187 129 CURVE SMOOTH",
"187 157 OFFCURVE",
"201 175 OFFCURVE",
"223 175 CURVE SMOOTH",
"244 175 OFFCURVE",
"258 157 OFFCURVE",
"258 129 CURVE SMOOTH",
"258 102 OFFCURVE",
"244 83 OFFCURVE",
"223 83 CURVE SMOOTH"
);
}
);
width = 440;
}
);
unicode = 110F4;
},
{
glyphname = u110F5;
lastChange = "2019-11-21 14:07:34 +0000";
layers = (
{
layerId = UUID0;
paths = (
{
closed = 1;
nodes = (
"153 0 LINE",
"330 221 LINE",
"330 266 LINE",
"150 266 LINE",
"150 800 LINE",
"80 800 LINE",
"80 0 LINE"
);
},
{
closed = 1;
nodes = (
"150 206 LINE",
"243 206 LINE",
"150 88 LINE"
);
}
);
width = 340;
},
{
layerId = "5FD33E09-9304-4171-B46D-1DFFD4F4F5B5";
paths = (
{
closed = 1;
nodes = (
"195 0 LINE",
"409 271 LINE",
"409 361 LINE",
"202 361 LINE",
"202 800 LINE",
"70 800 LINE",
"70 0 LINE"
);
},
{
closed = 1;
nodes = (
"202 260 LINE",
"277 260 LINE",
"202 168 LINE"
);
}
);
width = 414;
}
);
unicode = 110F5;
},
{
glyphname = u110F6;
lastChange = "2019-11-26 14:33:29 +0000";
layers = (
{
layerId = UUID0;
paths = (
{
closed = 1;
nodes = (
"68 -26 OFFCURVE",
"113 -20 OFFCURVE",
"149 -6 CURVE",
"163 -11 OFFCURVE",
"178 -14 OFFCURVE",
"194 -14 CURVE SMOOTH",
"258 -14 OFFCURVE",
"302 37 OFFCURVE",
"302 106 CURVE SMOOTH",
"302 175 OFFCURVE",
"257 226 OFFCURVE",
"198 226 CURVE SMOOTH",
"176 226 OFFCURVE",
"158 218 OFFCURVE",
"145 209 CURVE",
"150 207 LINE",
"157 217 OFFCURVE",
"164 226 OFFCURVE",
"174 238 CURVE SMOOTH",
"191 259 OFFCURVE",
"206 288 OFFCURVE",
"206 337 CURVE SMOOTH",
"206 800 LINE",
"136 800 LINE",
"136 329 LINE SMOOTH",
"136 288 OFFCURVE",
"123 259 OFFCURVE",
"106 229 CURVE SMOOTH",
"88 197 OFFCURVE",
"72 162 OFFCURVE",
"72 106 CURVE SMOOTH",
"72 68 OFFCURVE",
"87 36 OFFCURVE",
"107 26 CURVE",
"103 43 LINE",
"76 36 OFFCURVE",
"49 31 OFFCURVE",
"10 29 CURVE",
"36 -29 LINE"
);
},
{
closed = 1;
nodes = (
"164 44 OFFCURVE",
"144 70 OFFCURVE",
"144 106 CURVE SMOOTH",
"144 142 OFFCURVE",
"164 168 OFFCURVE",
"194 168 CURVE SMOOTH",
"223 168 OFFCURVE",
"243 142 OFFCURVE",
"243 106 CURVE SMOOTH",
"243 70 OFFCURVE",
"223 44 OFFCURVE",
"194 44 CURVE SMOOTH"
);
}
);
width = 342;
},
{
layerId = "5FD33E09-9304-4171-B46D-1DFFD4F4F5B5";
paths = (
{
closed = 1;
nodes = (
"72 -27 OFFCURVE",
"123 -22 OFFCURVE",
"154 -1 CURVE",
"173 -8 OFFCURVE",
"197 -14 OFFCURVE",
"217 -14 CURVE SMOOTH",
"284 -14 OFFCURVE",
"347 31 OFFCURVE",
"347 127 CURVE SMOOTH",
"347 207 OFFCURVE",
"295 268 OFFCURVE",
"232 268 CURVE SMOOTH",
"225 268 OFFCURVE",
"220 264 OFFCURVE",
"210 256 CURVE",
"217 251 LINE",
"234 269 OFFCURVE",
"244 278 OFFCURVE",
"258 298 CURVE SMOOTH",
"274 320 OFFCURVE",
"281 350 OFFCURVE",
"281 416 CURVE SMOOTH",
"281 800 LINE",
"149 800 LINE",
"149 379 LINE SMOOTH",
"149 333 OFFCURVE",
"141 302 OFFCURVE",
"120 267 CURVE SMOOTH",
"91 217 OFFCURVE",
"79 176 OFFCURVE",
"79 145 CURVE SMOOTH",
"79 117 OFFCURVE",
"86 99 OFFCURVE",
"95 84 CURVE",
"94 108 LINE",
"78 98 OFFCURVE",
"53 90 OFFCURVE",
"0 87 CURVE",
"48 -29 LINE"
);
},
{
closed = 1;
nodes = (
"194 83 OFFCURVE",
"180 102 OFFCURVE",
"180 129 CURVE SMOOTH",
"180 157 OFFCURVE",
"194 175 OFFCURVE",
"215 175 CURVE SMOOTH",
"237 175 OFFCURVE",
"251 157 OFFCURVE",
"251 129 CURVE SMOOTH",
"251 102 OFFCURVE",
"237 83 OFFCURVE",
"215 83 CURVE SMOOTH"
);
}
);
width = 382;
}
);
unicode = 110F6;
},
{
glyphname = u110F7;
lastChange = "2019-11-26 14:33:36 +0000";
layers = (
{
layerId = UUID0;
paths = (
{
closed = 1;
nodes = (
"263 -14 OFFCURVE",
"307 37 OFFCURVE",
"307 106 CURVE SMOOTH",
"307 175 OFFCURVE",
"265 226 OFFCURVE",
"201 226 CURVE SMOOTH",
"176 226 OFFCURVE",
"151 214 OFFCURVE",
"133 195 CURVE",
"141 186 LINE",
"148 216 OFFCURVE",
"150 257 OFFCURVE",
"150 307 CURVE SMOOTH",
"150 526 LINE SMOOTH",
"150 589 OFFCURVE",
"148 644 OFFCURVE",
"140 674 CURVE",
"137 672 LINE",
"147 652 OFFCURVE",
"156 637 OFFCURVE",
"172 614 CURVE SMOOTH",
"205 567 LINE",
"258 606 LINE",
"109 814 LINE",
"56 778 LINE",
"80 744 LINE",
"80 146 LINE SMOOTH",
"80 71 OFFCURVE",
"103 -14 OFFCURVE",
"199 -14 CURVE SMOOTH"
);
},
{
closed = 1;
nodes = (
"170 44 OFFCURVE",
"150 70 OFFCURVE",
"150 106 CURVE SMOOTH",
"150 142 OFFCURVE",
"170 168 OFFCURVE",
"199 168 CURVE SMOOTH",
"229 168 OFFCURVE",
"249 142 OFFCURVE",
"249 106 CURVE SMOOTH",
"249 70 OFFCURVE",
"229 44 OFFCURVE",
"199 44 CURVE SMOOTH"
);
}
);
width = 347;
},
{
layerId = "5FD33E09-9304-4171-B46D-1DFFD4F4F5B5";
paths = (
{
closed = 1;
nodes = (
"323 -14 OFFCURVE",
"368 56 OFFCURVE",
"368 131 CURVE SMOOTH",
"368 221 OFFCURVE",
"301 270 OFFCURVE",
"244 270 CURVE SMOOTH",
"224 270 OFFCURVE",
"207 263 OFFCURVE",
"198 255 CURVE",
"207 240 LINE",
"212 261 OFFCURVE",
"221 322 OFFCURVE",
"221 377 CURVE SMOOTH",
"221 465 LINE SMOOTH",
"221 507 OFFCURVE",
"218 542 OFFCURVE",
"210 577 CURVE",
"207 575 LINE",
"218 541 OFFCURVE",
"232 525 OFFCURVE",
"242 513 CURVE SMOOTH",
"258 490 LINE",
"345 562 LINE",
"143 814 LINE",
"50 736 LINE",
"89 686 LINE",
"89 167 LINE SMOOTH",
"89 60 OFFCURVE",
"137 -14 OFFCURVE",
"233 -14 CURVE SMOOTH"
);
},
{
closed = 1;
nodes = (
"215 83 OFFCURVE",
"201 104 OFFCURVE",
"201 129 CURVE SMOOTH",
"201 157 OFFCURVE",
"215 175 OFFCURVE",
"236 175 CURVE SMOOTH",
"258 175 OFFCURVE",
"272 157 OFFCURVE",
"272 129 CURVE SMOOTH",
"272 104 OFFCURVE",
"258 83 OFFCURVE",
"236 83 CURVE SMOOTH"
);
}
);
width = 403;
}
);
unicode = 110F7;
},
{
glyphname = u110F8;
lastChange = "2019-11-21 14:02:24 +0000";
layers = (
{
layerId = UUID0;
paths = (
{
closed = 1;
nodes = (
"150 0 LINE",
"150 800 LINE",
"80 800 LINE",
"80 0 LINE"
);
},
{
closed = 1;
nodes = (
"334 0 LINE",
"334 60 LINE",
"80 60 LINE",
"80 0 LINE"
);
}
);
width = 344;
},
{
layerId = "5FD33E09-9304-4171-B46D-1DFFD4F4F5B5";
paths = (
{
closed = 1;
nodes = (
"202 0 LINE",
"202 800 LINE",
"70 800 LINE",
"70 0 LINE"
);
},
{
closed = 1;
nodes = (
"386 0 LINE",
"386 125 LINE",
"92 125 LINE",
"92 0 LINE"
);
}
);
width = 391;
}
);
unicode = 110F8;
},
{
glyphname = u110F9;
lastChange = "2019-11-21 17:05:55 +0000";
layers = (
{
layerId = UUID0;
paths = (
{
closed = 1;
nodes = (
"174 21 OFFCURVE",
"317 86 OFFCURVE",
"317 210 CURVE SMOOTH",
"317 282 OFFCURVE",
"269 336 OFFCURVE",
"205 336 CURVE SMOOTH",
"176 336 OFFCURVE",
"149 322 OFFCURVE",
"134 302 CURVE",
"150 295 LINE",
"150 800 LINE",
"80 800 LINE",
"80 64 LINE",
"64 58 OFFCURVE",
"48 53 OFFCURVE",
"30 48 CURVE",
"30 -14 LINE"
);
},
{
closed = 1;
nodes = (
"150 225 LINE",
"152 254 OFFCURVE",
"172 270 OFFCURVE",
"195 270 CURVE SMOOTH",
"224 270 OFFCURVE",
"244 246 OFFCURVE",
"244 207 CURVE SMOOTH",
"244 165 OFFCURVE",
"211 127 OFFCURVE",
"150 94 CURVE"
);
}
